<svg width="21" height="21" viewBox="0 0 21 21" fill="none" xmlns="http://www.w3.org/2000/svg">
<path d="M7.62188 1.33594C9.60224 1.40759 11.2862 2.98127 12.7021 5.91339C12.8714 6.26401 13.0711 6.60015 13.315 6.90365C14.5436 8.43255 15.7618 9.82081 16.9485 10.7851C18.2451 11.8386 18.9707 13.4859 18.7844 15.1461C18.4847 17.8171 16.3086 19.8531 13.2645 19.6478C9.76702 19.4119 7.02331 17.5659 4.9145 14.3634C2.66611 11.1699 1.67259 8.13278 2.44614 5.31595C2.67406 4.48596 3.08973 3.70858 3.67017 3.07303C4.71766 1.9261 6.04675 1.37202 7.62188 1.33594Z" fill="#D2448D"/>
<path d="M18.2367 16.9616C17.3271 18.7407 15.5118 19.8003 13.2632 19.6494C9.76693 19.4134 7.02235 17.5647 4.91582 14.3613C2.66507 11.1709 1.67299 8.1335 2.44655 5.3146C2.67382 4.48422 3.08901 3.71065 3.67025 3.07259C4.08544 2.61806 4.54433 2.25971 5.04693 1.98438C4.84151 2.36022 4.67981 2.76229 4.5662 3.17748C3.79263 5.992 4.78472 9.02942 7.03545 12.2242C9.14197 15.4277 11.8866 17.2719 15.3872 17.5079C16.3706 17.5735 17.367 17.403 18.2367 16.9616Z" fill="#B8348C"/>
<path d="M17.9745 17.4162C16.8892 19.0621 15.1621 19.7768 13.2632 19.6494C9.76693 19.4134 7.02235 17.5647 4.91582 14.3613C2.66507 11.1709 1.67299 8.13349 2.44655 5.31459C2.67382 4.48421 3.08901 3.71065 3.67025 3.07259C3.89314 2.82785 4.12916 2.6137 4.37825 2.42578C4.05047 2.91526 3.80573 3.46156 3.6484 4.03408C2.87484 6.8486 3.86692 9.88599 6.11768 13.0807C8.2242 16.2842 10.9688 18.1285 14.4651 18.3645C15.715 18.4476 16.9781 18.1548 17.9745 17.4162Z" fill="#C01596"/>
<path d="M12.8506 10.094C12.094 9.65181 11.1088 8.87599 10.7111 7.69116C10.5063 7.08112 10.5013 6.5166 10.5264 5.99741C10.5395 5.70438 10.6532 5.37265 10.9306 5.25611L10.9932 5.22972C10.9932 5.22972 11.1261 5.21424 11.1287 5.21436C11.4289 5.2278 11.6385 5.39129 11.7175 5.63208C12.0167 6.54066 11.95 6.36862 12.2194 6.93502C13.0357 8.65309 14.1647 8.87638 14.5189 9.25785C15.1031 9.89446 14.4062 11.0037 12.8506 10.094Z" fill="#B8348C"/>
<path d="M11.3584 5.74966C11.5116 6.21417 11.76 7.03889 12.2372 7.74352C13.1004 9.01815 14.0211 9.27607 14.2416 9.51486C14.4458 9.73602 14.3508 10.0279 13.9749 10.0588C13.6449 10.086 13.3276 9.93501 13.0416 9.76789C12.1733 9.26039 11.3895 8.52441 11.0696 7.57084C10.8959 7.05289 10.8778 6.56115 10.9039 6.01547C10.912 5.84728 10.9695 5.60017 11.138 5.59159C11.24 5.5864 11.3264 5.65265 11.3584 5.74966Z" fill="#FFDE9B"/>
<g opacity="0.2">
<path d="M9.61459 3.13545C9.46487 3.52098 8.74573 3.60649 8.00665 3.31948C7.27551 3.03556 6.79461 2.48403 6.94432 2.0985C7.09402 1.71302 7.82111 1.6306 8.55224 1.91452C9.29133 2.20153 9.76428 2.74997 9.61459 3.13545Z" fill="white"/>
</g>
<g opacity="0.2">
<path d="M8.85066 3.2988C7.55932 3.2988 6.34499 1.93652 7.7108 1.93652C8.27881 1.93652 8.94411 2.23447 9.27256 2.61309C9.64148 3.0382 9.40767 3.2988 8.85066 3.2988Z" fill="white"/>
</g>
<path d="M9.70227 5.28802C9.30906 5.28802 8.9909 5.60617 8.9909 5.99939C8.9909 5.60611 8.67288 5.28802 8.27954 5.28802C8.67282 5.28802 8.9909 4.97 8.9909 4.57666C8.9909 4.77292 9.07079 4.95127 9.19888 5.08005C9.32765 5.20814 9.50601 5.28802 9.70227 5.28802Z" fill="white"/>
</svg>
