<svg width="252" height="252" viewBox="0 0 252 252" fill="none" xmlns="http://www.w3.org/2000/svg">
<path d="M127 106.137C146.332 106.137 162.004 90.4649 162.004 71.1328C162.004 51.8007 146.332 36.1289 127 36.1289C107.668 36.1289 91.9961 51.8007 91.9961 71.1328C91.9961 90.4649 107.668 106.137 127 106.137Z" fill="#6C72FF"/>
<path d="M197.812 106.136C210.034 106.136 219.941 96.2288 219.941 84.0074C219.941 71.7859 210.034 61.8785 197.812 61.8785C185.591 61.8785 175.684 71.7859 175.684 84.0074C175.684 96.2288 185.591 106.136 197.812 106.136Z" fill="#6C72FF"/>
<path d="M56.1875 106.136C68.409 106.136 78.3164 96.2288 78.3164 84.0074C78.3164 71.7859 68.409 61.8785 56.1875 61.8785C43.966 61.8785 34.0586 71.7859 34.0586 84.0074C34.0586 96.2288 43.966 106.136 56.1875 106.136Z" fill="#6C72FF"/>
<path d="M77.9905 126.008C69.2798 118.872 61.391 119.816 51.3191 119.816C36.2554 119.816 24 131.999 24 146.971V190.91C24 197.412 29.3069 202.699 35.8329 202.699C64.0075 202.699 60.6133 203.209 60.6133 201.484C60.6133 170.348 56.9254 147.515 77.9905 126.008Z" fill="#6C72FF"/>
<path d="M136.58 119.977C118.988 118.51 103.697 119.994 90.5074 130.88C68.436 148.559 72.6836 172.363 72.6836 201.484C72.6836 209.188 78.9521 215.574 86.7736 215.574C171.701 215.574 175.081 218.313 180.117 207.161C181.769 203.389 181.316 204.588 181.316 168.508C181.316 139.85 156.503 119.977 136.58 119.977Z" fill="#6C72FF"/>
<path d="M202.681 119.816C192.554 119.816 184.708 118.881 176.009 126.008C196.917 147.355 193.387 168.63 193.387 201.484C193.387 203.219 190.569 202.699 217.744 202.699C224.504 202.699 230 197.223 230 190.492V146.97C230 131.999 217.744 119.816 202.681 119.816Z" fill="#6C72FF"/>
</svg>
