<svg width="252" height="252" viewBox="0 0 252 252" fill="none" xmlns="http://www.w3.org/2000/svg">
<g clip-path="url(#clip0_136_974)">
<path d="M127 106.285C146.301 106.285 162.004 90.5825 162.004 71.2812C162.004 51.98 146.301 36.2773 127 36.2773C107.699 36.2773 91.9961 51.98 91.9961 71.2812C91.9961 90.5825 107.699 106.285 127 106.285ZM127 48.3477C139.646 48.3477 149.934 58.6356 149.934 71.2812C149.934 83.9269 139.646 94.2148 127 94.2148C114.354 94.2148 104.066 83.9269 104.066 71.2812C104.066 58.6356 114.354 48.3477 127 48.3477Z" fill="#AEB9E1"/>
<path d="M197.812 106.285C210.014 106.285 219.941 96.3581 219.941 84.1562C219.941 71.9544 210.014 62.0273 197.812 62.0273C185.611 62.0273 175.684 71.9544 175.684 84.1562C175.684 96.3581 185.611 106.285 197.812 106.285ZM197.812 74.0977C203.359 74.0977 207.871 78.6099 207.871 84.1562C207.871 89.7026 203.359 94.2148 197.812 94.2148C192.266 94.2148 187.754 89.7026 187.754 84.1562C187.754 78.6099 192.266 74.0977 197.812 74.0977Z" fill="#AEB9E1"/>
<path d="M202.681 119.965H193.346C182.347 119.965 172.851 126.463 168.525 135.798C159.616 126.073 146.821 119.965 132.624 119.965H121.376C107.18 119.965 94.384 126.073 85.4757 135.798C81.1485 126.463 71.6532 119.965 60.6535 119.965H51.3191C36.2554 119.965 24 132.146 24 147.119V191.059C24 197.559 29.3085 202.848 35.8337 202.848H72.7395C73.3583 210.05 79.4144 215.723 86.7745 215.723H167.226C174.586 215.723 180.642 210.05 181.261 202.848H217.745C224.503 202.848 230 197.372 230 190.641V147.119C230 132.146 217.745 119.965 202.681 119.965ZM36.0703 147.119C36.0703 138.802 42.911 132.035 51.3191 132.035H60.6535C69.0617 132.035 75.9023 138.802 75.9023 147.119V151.251C71.8439 161.819 72.6836 168.152 72.6836 190.777H36.0703V147.119ZM169.246 201.632C169.246 202.746 168.34 203.652 167.226 203.652H86.7741C85.66 203.652 84.7539 202.746 84.7539 201.632V168.657C84.7539 148.464 101.182 132.035 121.376 132.035H132.624C152.818 132.035 169.246 148.464 169.246 168.657V201.632ZM217.93 190.641C217.93 190.849 220.18 190.777 181.316 190.777C181.316 167.984 182.15 161.801 178.098 151.251V147.119C178.098 138.802 184.938 132.035 193.346 132.035H202.681C211.089 132.035 217.93 138.802 217.93 147.119V190.641Z" fill="#AEB9E1"/>
<path d="M56.1875 106.285C68.3894 106.285 78.3164 96.3581 78.3164 84.1562C78.3164 71.9544 68.3894 62.0273 56.1875 62.0273C43.9856 62.0273 34.0586 71.9544 34.0586 84.1562C34.0586 96.3581 43.9856 106.285 56.1875 106.285ZM56.1875 74.0977C61.7338 74.0977 66.2461 78.6099 66.2461 84.1562C66.2461 89.7026 61.7338 94.2148 56.1875 94.2148C50.6412 94.2148 46.1289 89.7026 46.1289 84.1562C46.1289 78.6099 50.6412 74.0977 56.1875 74.0977Z" fill="#AEB9E1"/>
</g>
<defs>
<clipPath id="clip0_136_974">
<rect width="206" height="206" fill="white" transform="translate(24 23)"/>
</clipPath>
</defs>
</svg>
