<svg width="250" height="250" viewBox="0 0 250 250" fill="none" xmlns="http://www.w3.org/2000/svg">
<path d="M137.684 13H131.092V118.908H237V112.316C237 57.7926 192.207 13 137.684 13Z" fill="#6C72FF"/>
<path d="M46.3145 213.007C63.7142 228.244 86.4233 238 111.317 238C165.84 238 210.194 193.207 210.194 138.684V132.092H127.23L46.3145 213.007Z" fill="#6C72FF"/>
<path d="M117.909 39.8066H111.317C89.7905 39.8066 69.9105 46.7975 53.6587 58.5208L117.909 122.771V39.8066Z" fill="#6C72FF"/>
<path d="M43.4543 66.9591C24.4031 84.9934 12 110.44 12 138.684C12 163.577 21.7559 186.286 36.993 203.686L108.587 132.092L43.4543 66.9591Z" fill="#6C72FF"/>
</svg>
