<svg width="252" height="252" viewBox="0 0 252 252" fill="none" xmlns="http://www.w3.org/2000/svg">
<path d="M200.271 201.833H42.7292C31.3033 201.833 22 192.538 22 181.104V56.7292C22 45.295 31.3033 36 42.7292 36H200.271C211.697 36 221 45.295 221 56.7292V181.104C221 192.538 211.697 201.833 200.271 201.833ZM42.7292 44.2917C35.872 44.2917 30.2917 49.872 30.2917 56.7292V181.104C30.2917 187.961 35.872 193.542 42.7292 193.542H200.271C207.128 193.542 212.708 187.961 212.708 181.104V56.7292C212.708 49.872 207.128 44.2917 200.271 44.2917H42.7292Z" fill="#AEB9E1"/>
<path d="M51.0208 102.333C48.7323 102.333 46.875 100.476 46.875 98.1875V81.6041C46.875 70.1699 56.1783 60.875 67.6042 60.875H84.1875C86.476 60.875 88.3333 62.7323 88.3333 65.0208C88.3333 67.3093 86.476 69.1666 84.1875 69.1666H67.6042C60.747 69.1666 55.1667 74.7469 55.1667 81.6041V98.1875C55.1667 100.476 53.3093 102.333 51.0208 102.333Z" fill="#AEB9E1"/>
<path d="M175.396 176.959H158.813C156.524 176.959 154.667 175.101 154.667 172.813C154.667 170.524 156.524 168.667 158.813 168.667H175.396C182.253 168.667 187.834 163.087 187.834 156.229V139.646C187.834 137.358 189.691 135.5 191.979 135.5C194.268 135.5 196.125 137.358 196.125 139.646V156.229C196.125 167.664 186.822 176.959 175.396 176.959Z" fill="#AEB9E1"/>
</svg>
