<svg width="250" height="250" viewBox="0 0 250 250" fill="none" xmlns="http://www.w3.org/2000/svg">
<path d="M196.083 38H41.9167C29.25 38 19 48.209 19 60.825V181.175C19 193.791 29.25 204 41.9167 204H196.083C208.75 204 219 193.791 219 181.175V60.825C219 48.209 208.75 38 196.083 38ZM81.5 79.5H69C64.4083 79.5 60.6667 83.2184 60.6667 87.8V100.25C60.6667 104.84 56.9333 108.55 52.3333 108.55C47.7333 108.55 44 104.84 44 100.25V87.8C44 74.0718 55.2167 62.9 69 62.9H81.5C86.1 62.9 89.8333 66.6101 89.8333 71.2C89.8333 75.7899 86.1 79.5 81.5 79.5ZM194 154.2C194 167.928 182.783 179.1 169 179.1H156.5C151.9 179.1 148.167 175.39 148.167 170.8C148.167 166.21 151.9 162.5 156.5 162.5H169C173.592 162.5 177.333 158.782 177.333 154.2V141.75C177.333 137.16 181.067 133.45 185.667 133.45C190.267 133.45 194 137.16 194 141.75V154.2Z" fill="#6C72FF"/>
</svg>
