<svg width="250" height="250" viewBox="0 0 250 250" fill="none" xmlns="http://www.w3.org/2000/svg">
<path d="M205.438 18H64.4156C49.8498 18 38 29.8498 38 44.4152V205.584C38 220.15 49.8498 232 64.4152 232H205.438C208.9 232 211.707 229.193 211.707 225.73V185.438V24.2695C211.708 20.8071 208.901 18 205.438 18ZM50.5395 44.4152C50.5395 36.7643 56.7643 30.5391 64.4152 30.5391H199.168V179.169H64.4156C59.3285 179.169 54.575 180.618 50.5395 183.12V44.4152ZM64.416 219.461C56.7643 219.461 50.5395 213.236 50.5395 205.584C50.5395 197.933 56.7643 191.708 64.4156 191.708H199.169V219.461H64.416Z" fill="#AEB9E1"/>
<path d="M171.11 91.8977C170.372 89.6281 168.41 87.9738 166.048 87.6311L141.469 84.0599L130.477 61.7868C129.421 59.6468 127.242 58.2922 124.855 58.2922C122.468 58.2922 120.289 59.6472 119.233 61.7872L108.242 84.0599L83.6613 87.6311C81.2998 87.9738 79.3374 89.6281 78.6001 91.8977C77.8624 94.1677 78.4777 96.6592 80.1863 98.3248L97.973 115.662L93.7732 140.142C93.3699 142.494 94.3367 144.871 96.2672 146.274C97.3594 147.068 98.653 147.471 99.9529 147.471C100.951 147.471 101.952 147.233 102.87 146.751L124.854 135.193L146.84 146.751C147.764 147.236 148.76 147.469 149.776 147.472C153.233 147.466 156.036 144.661 156.036 141.202C156.036 140.721 155.981 140.252 155.878 139.801L151.738 115.662L169.523 98.3244C171.232 96.6588 171.847 94.1673 171.11 91.8977ZM140.625 108.985C139.148 110.425 138.474 112.5 138.822 114.534L141.43 129.741L127.771 122.56C126.858 122.08 125.856 121.84 124.854 121.84C123.852 121.84 122.85 122.08 121.936 122.561L108.279 129.741L110.888 114.534C111.237 112.5 110.563 110.425 109.085 108.985L98.0344 98.2136L113.307 95.9946C115.349 95.6983 117.114 94.4155 118.027 92.5648L124.854 78.7288L131.683 92.5652C132.596 94.4155 134.361 95.6983 136.404 95.9946L151.674 98.2136L140.625 108.985Z" fill="#AEB9E1"/>
</svg>
