<svg width="250" height="250" viewBox="0 0 250 250" fill="none" xmlns="http://www.w3.org/2000/svg">
<path d="M205.829 21H67.0039C52.6656 21 41 32.6651 41 47.0035V205.661C41 219.999 52.6656 231.665 67.0035 231.665H205.828C209.237 231.665 212 228.901 212 225.493V185.829V27.1718C212 23.7633 209.237 21 205.829 21ZM80.9662 93.7459C81.6924 91.5118 83.6234 89.8832 85.9481 89.5458L110.146 86.0304L120.966 64.1048C122.005 61.9981 124.151 60.6642 126.5 60.6642C128.85 60.6642 130.995 61.9977 132.035 64.1044L142.856 86.0304L167.051 89.5458C169.376 89.8832 171.308 91.5118 172.034 93.7459C172.76 95.9801 172.154 98.4328 170.472 100.072L152.965 117.14L157.04 140.903C157.142 141.346 157.195 141.808 157.195 142.282C157.195 145.687 154.437 148.448 151.032 148.454C151.027 148.454 151.02 148.454 151.014 148.454C150.032 148.454 149.046 148.22 148.143 147.745L126.5 136.366L104.858 147.744C103.955 148.219 102.969 148.454 101.987 148.454C100.707 148.454 99.4335 148.056 98.3584 147.275C96.4579 145.895 95.5054 143.554 95.9028 141.238L100.037 117.14L82.5277 100.073C80.8461 98.4328 80.2404 95.9801 80.9662 93.7459ZM199.657 219.321H67.0039C59.4714 219.321 53.3436 213.193 53.3436 205.661C53.3436 205.401 53.3523 205.143 53.3671 204.887C53.7699 197.713 59.7319 192 67.0039 192H156.454H199.657V219.321Z" fill="#6C72FF"/>
</svg>
