<svg width="232" height="232" viewBox="0 0 232 232" fill="none" xmlns="http://www.w3.org/2000/svg">
<path fill-rule="evenodd" clip-rule="evenodd" d="M150.4 124.6H47.1997V107.4H150.4V124.6Z" fill="#AEB9E1"/>
<path fill-rule="evenodd" clip-rule="evenodd" d="M109.919 75.5189C113.277 72.1604 118.723 72.1604 122.081 75.5189L156.481 109.919C159.84 113.277 159.84 118.723 156.481 122.081L122.081 156.481C118.723 159.839 113.277 159.839 109.919 156.481C106.561 153.123 106.561 147.677 109.919 144.319L138.238 116L109.919 87.6811C106.561 84.3226 106.561 78.8774 109.919 75.5189Z" fill="#AEB9E1"/>
<path fill-rule="evenodd" clip-rule="evenodd" d="M30 64.4C30 45.4014 45.4014 30 64.4 30H167.6C186.598 30 202 45.4014 202 64.4V167.6C202 186.598 186.598 202 167.6 202H64.4C45.4014 202 30 186.598 30 167.6V141.8H47.2V167.6C47.2 177.1 54.9007 184.8 64.4 184.8H167.6C177.1 184.8 184.8 177.1 184.8 167.6V64.4C184.8 54.9007 177.1 47.2 167.6 47.2H64.4C54.9007 47.2 47.2 54.9007 47.2 64.4V90.2H30V64.4Z" fill="#AEB9E1"/>
</svg>
