<svg width="226" height="73" viewBox="0 0 226 73" fill="none" xmlns="http://www.w3.org/2000/svg">
<path d="M74.8704 4.9707C75.888 4.9707 76.7712 5.21049 77.5256 5.68422C78.2801 6.1638 78.6544 7.06447 78.6544 8.38623C78.6544 9.70799 78.2801 10.5268 77.5256 11.0181C76.7712 11.5093 75.888 11.755 74.8704 11.755C73.8528 11.755 72.9346 11.5093 72.1918 11.0181C71.4549 10.5268 71.0864 9.64951 71.0864 8.38623C71.0864 7.12295 71.4549 6.1638 72.1918 5.68422C72.9287 5.20464 73.8235 4.9707 74.8704 4.9707ZM78.3327 14.8956V40.1027H71.3613V14.8956H78.3327Z" fill="#EDEDED"/>
<path d="M99.523 14.4335C102.295 14.4335 104.477 15.1587 106.079 16.6033C107.682 18.0478 108.477 20.4048 108.477 23.6683V40.1026H101.552V25.4228C101.552 23.6098 101.219 22.2471 100.558 21.3347C99.8973 20.4282 98.8738 19.972 97.4878 19.972C95.394 19.972 93.9728 20.6855 93.2183 22.1184C92.4639 23.5513 92.0896 25.6041 92.0896 28.2827V40.1026H85.1182V14.8955H90.4754L91.4463 18.2642H91.7211C92.2767 17.4338 92.9435 16.7319 93.7272 16.1646C94.5109 15.5973 95.3881 15.1645 96.359 14.8721C97.3298 14.5797 98.3826 14.4335 99.523 14.4335Z" fill="#EDEDED"/>
<path d="M130.125 12.545C128.804 12.545 127.611 12.7965 126.546 13.3053C125.482 13.8141 124.587 14.551 123.844 15.5219C123.107 16.4927 122.546 17.6624 122.16 19.031C121.774 20.3995 121.581 21.9611 121.581 23.7156C121.581 26.0258 121.902 28.0026 122.552 29.646C123.195 31.2953 124.172 32.5469 125.482 33.4066C126.792 34.2664 128.429 34.6991 130.4 34.6991C131.845 34.6991 133.237 34.5295 134.576 34.1903C135.916 33.8511 137.261 33.4183 138.618 32.8978V38.8984C137.231 39.4832 135.822 39.9043 134.395 40.1675C132.962 40.4307 131.371 40.5593 129.617 40.5593C126.108 40.5593 123.224 39.8575 120.961 38.4597C118.698 37.0619 117.019 35.0851 115.931 32.5293C114.837 29.9735 114.294 27.0201 114.294 23.6689C114.294 21.1774 114.639 18.8906 115.335 16.8144C116.025 14.7382 117.048 12.9427 118.405 11.4338C119.756 9.92487 121.423 8.75517 123.388 7.92469C125.353 7.0942 127.634 6.67896 130.219 6.67896C131.851 6.67896 133.506 6.85441 135.184 7.21117C136.863 7.56793 138.454 8.11184 139.963 8.84875L137.653 14.4809C136.547 13.9603 135.366 13.5042 134.12 13.1182C132.874 12.7322 131.541 12.5392 130.125 12.5392V12.545Z" fill="#EDEDED"/>
<path d="M151.731 12.0821C151.731 13.4389 151.69 14.6262 151.614 15.6614C151.538 16.6907 151.468 17.5153 151.41 18.1294H151.778C152.334 17.2346 152.977 16.5269 153.72 16.0064C154.457 15.4859 155.281 15.0941 156.188 14.8309C157.094 14.5677 158.059 14.439 159.071 14.439C160.884 14.439 162.469 14.7607 163.826 15.4099C165.183 16.0532 166.236 17.0475 166.99 18.3868C167.744 19.7261 168.119 21.4865 168.119 23.6738V40.1081H161.147V25.4284C161.147 23.6153 160.826 22.2526 160.177 21.3403C159.533 20.4337 158.516 19.9776 157.129 19.9776C155.743 19.9776 154.708 20.2992 153.919 20.9484C153.135 21.5976 152.573 22.5334 152.234 23.7674C151.895 25.0014 151.725 26.5045 151.725 28.2883V40.1081H144.754V5.01709H151.725V12.0821H151.731Z" fill="#EDEDED"/>
<path d="M186.026 14.4335C189.196 14.4335 191.611 15.1821 193.272 16.6734C194.933 18.1648 195.764 20.3756 195.764 23.2998V40.1026H190.915L189.576 36.687H189.389C188.681 37.5819 187.95 38.3188 187.196 38.9036C186.441 39.4885 185.57 39.9096 184.587 40.1727C183.605 40.4359 182.4 40.5646 180.985 40.5646C179.569 40.5646 178.183 40.278 177.014 39.7107C175.844 39.1434 174.92 38.272 174.241 37.1023C173.563 35.9326 173.224 34.4588 173.224 32.6691C173.224 30.0256 174.177 28.0371 176.084 26.7153C177.99 25.3936 180.839 24.6567 184.623 24.4988L188.822 24.3584V23.5747C188.822 22.0658 188.482 21.013 187.804 20.4106C187.126 19.8082 186.172 19.51 184.944 19.51C183.804 19.51 182.634 19.6971 181.435 20.0656C180.236 20.434 179.049 20.8785 177.879 21.4049L175.85 16.6501C177.172 15.9716 178.686 15.4336 180.394 15.0359C182.102 14.6382 183.973 14.4335 186.003 14.4335H186.026ZM186.213 28.5635C184.026 28.6278 182.505 28.9787 181.646 29.6279C180.786 30.2771 180.353 31.1836 180.353 32.3533C180.353 33.4294 180.651 34.2248 181.254 34.7278C181.856 35.2366 182.646 35.4881 183.628 35.4881C185.108 35.4881 186.342 35.0553 187.342 34.1956C188.342 33.3358 188.845 32.1018 188.845 30.5052V28.4289L186.213 28.5693V28.5635Z" fill="#EDEDED"/>
<path d="M216.537 14.4341C219.461 14.4341 221.772 15.5336 223.462 17.7326C225.152 19.9317 226 23.1717 226 27.447C226 30.2777 225.591 32.6814 224.778 34.6465C223.965 36.6175 222.824 38.0913 221.362 39.0797C219.9 40.0622 218.233 40.5593 216.356 40.5593C215.122 40.5593 214.063 40.3956 213.168 40.0739C212.274 39.7523 211.531 39.3487 210.928 38.875C210.326 38.3954 209.811 37.8983 209.384 37.3719H209.11C209.174 37.9275 209.232 38.565 209.297 39.2902C209.355 40.0154 209.39 40.7582 209.39 41.5302V51.1802H202.419V14.8961H208.098L209.069 18.1713H209.39C209.852 17.4636 210.396 16.832 211.028 16.2764C211.659 15.7207 212.426 15.2763 213.338 14.937C214.244 14.5978 215.315 14.4282 216.549 14.4282L216.537 14.4341ZM214.233 19.9726C213.063 19.9726 212.127 20.2182 211.42 20.7095C210.712 21.2008 210.203 21.9436 209.893 22.9261C209.583 23.9087 209.414 25.1602 209.384 26.6633V27.4002C209.384 29.0027 209.531 30.3596 209.823 31.4825C210.115 32.6054 210.624 33.4593 211.344 34.0441C212.069 34.629 213.046 34.9214 214.274 34.9214C215.321 34.9214 216.192 34.629 216.882 34.0441C217.572 33.4593 218.087 32.6054 218.426 31.4825C218.765 30.3596 218.935 28.9852 218.935 27.3534C218.935 24.862 218.543 23.008 217.759 21.7915C216.976 20.575 215.8 19.9668 214.227 19.9668L214.233 19.9726Z" fill="#EDEDED"/>
<path d="M24.1658 8.54594C24.1658 8.54594 23.0838 1.20607 18.674 1.08325C18.674 1.08325 12.767 3.03665 6.86589 17.6755C0.958898 32.3084 -1.36881 45.1693 0.79514 52.0413C3.95333 53.7607 4.4563 53.9303 10.9423 55.0942C10.0299 51.1874 8.02974 48.9416 12.6033 31.5598C14.6795 25.2376 20.7561 11.8094 24.1658 8.54594ZM14.1824 23.9451C13.9835 24.4422 13.7847 24.9393 13.5917 25.4364C13.5449 25.5534 13.4338 25.6294 13.3109 25.6294C13.2759 25.6294 13.2408 25.6236 13.1998 25.6119C13.0419 25.5534 12.9659 25.3779 13.0302 25.22C13.2232 24.7229 13.4221 24.2199 13.6268 23.7228C13.6911 23.5708 13.8666 23.4947 14.0186 23.5591C14.1707 23.6234 14.2467 23.7988 14.1824 23.9509V23.9451ZM16.7908 18.0907C16.5569 18.5644 16.3288 19.0557 16.1007 19.5353C16.048 19.6464 15.9428 19.7107 15.8258 19.7107C15.7849 19.7107 15.7381 19.699 15.6971 19.6815C15.5451 19.6113 15.4807 19.43 15.5509 19.2838C15.779 18.7925 16.013 18.3071 16.2469 17.8275C16.3171 17.6755 16.4984 17.617 16.6504 17.6872C16.8025 17.7573 16.861 17.9386 16.7908 18.0907ZM22.0018 8.10146C22.2475 7.76225 22.4989 7.42888 22.7446 7.11306C22.844 6.97855 23.037 6.95515 23.1657 7.06042C23.3002 7.15985 23.3236 7.35285 23.2183 7.48152C22.9785 7.79734 22.7329 8.12485 22.4872 8.45822C22.4288 8.5401 22.3352 8.58104 22.2416 8.58104C22.1773 8.58104 22.1188 8.56349 22.0662 8.52255C21.9316 8.42313 21.9024 8.23597 22.0018 8.10146ZM20.1771 10.7684C20.4695 10.3063 20.7736 9.85601 21.0661 9.41737C21.1596 9.27701 21.3468 9.24192 21.4872 9.33549C21.6275 9.42907 21.6626 9.61622 21.569 9.75659C21.2766 10.1894 20.9783 10.6339 20.6859 11.09C20.6274 11.1778 20.5338 11.2304 20.4344 11.2304C20.3759 11.2304 20.3233 11.2129 20.2707 11.1836C20.1303 11.0959 20.0894 10.9087 20.1771 10.7684ZM19.7385 12.0434C19.8788 12.1311 19.9256 12.3124 19.8437 12.4586C19.5747 12.9089 19.2998 13.371 19.0366 13.8388C18.984 13.9383 18.8787 13.9909 18.7734 13.9909C18.7208 13.9909 18.674 13.9792 18.6214 13.95C18.4752 13.8681 18.4284 13.6809 18.5103 13.5406C18.7793 13.0668 19.0542 12.599 19.3291 12.1486C19.4168 12.0083 19.5981 11.9615 19.7443 12.0434H19.7385ZM17.8494 2.27635C18.2529 1.94883 18.4927 1.77922 18.5044 1.77338C18.6389 1.6798 18.8261 1.70904 18.9255 1.84941C19.0191 1.98392 18.9898 2.17107 18.8495 2.2705C18.8495 2.2705 18.6155 2.43426 18.2295 2.75008C18.1711 2.79686 18.1067 2.82026 18.0365 2.82026C17.9488 2.82026 17.8611 2.78517 17.8026 2.70914C17.6973 2.58047 17.7149 2.38747 17.8435 2.2822L17.8494 2.27635ZM18.1301 14.8272C18.2763 14.9091 18.329 15.0904 18.2529 15.2366C18.0014 15.6987 17.75 16.1782 17.5043 16.6578C17.4517 16.7631 17.3464 16.8216 17.2353 16.8216C17.1885 16.8216 17.1417 16.8099 17.1008 16.7865C16.9546 16.7105 16.8961 16.5292 16.9721 16.3829C17.2177 15.9034 17.4751 15.4179 17.7266 14.9501C17.8084 14.8038 17.9897 14.7512 18.136 14.8272H18.1301ZM15.5041 4.47539C15.8726 4.08354 16.2586 3.69753 16.6387 3.33493C16.7616 3.2238 16.9487 3.22965 17.0657 3.34662C17.1768 3.46944 17.171 3.65659 17.054 3.77356C16.6797 4.13032 16.3054 4.50463 15.9428 4.88478C15.8843 4.94911 15.8024 4.97836 15.7205 4.97836C15.6445 4.97836 15.5743 4.94911 15.5158 4.89648C15.393 4.78536 15.3872 4.59236 15.5041 4.46954V4.47539ZM15.2819 20.5939C15.434 20.664 15.5041 20.8395 15.434 20.9916C15.2176 21.4828 15.007 21.9683 14.7965 22.4595C14.7497 22.5765 14.6386 22.6408 14.5216 22.6408C14.4806 22.6408 14.4397 22.635 14.4046 22.6174C14.2526 22.5531 14.1824 22.3777 14.2467 22.2198C14.4573 21.7285 14.6678 21.2314 14.89 20.7401C14.9602 20.588 15.1357 20.5178 15.2877 20.588L15.2819 20.5939ZM13.4455 6.94345C13.7613 6.51651 14.0946 6.08957 14.4397 5.67433C14.545 5.54566 14.738 5.52812 14.8666 5.63339C14.9953 5.73866 15.0129 5.93166 14.9076 6.06033C14.5742 6.46388 14.2467 6.87912 13.9367 7.30021C13.8782 7.38209 13.7847 7.42303 13.6911 7.42303C13.6268 7.42303 13.5683 7.40549 13.5156 7.36455C13.3811 7.26512 13.3519 7.07797 13.4513 6.94345H13.4455ZM11.7085 9.65131C11.7903 9.51095 11.8664 9.36474 11.9482 9.22437C12.1354 8.9027 12.3284 8.58104 12.5331 8.27107C12.6208 8.1307 12.808 8.08976 12.9483 8.18334C13.0887 8.27106 13.1296 8.45822 13.0361 8.59858C12.8431 8.9027 12.6501 9.21267 12.4688 9.52265C12.3927 9.66301 12.3108 9.80337 12.229 9.94374C12.1763 10.0432 12.0711 10.0958 11.9658 10.0958C11.9131 10.0958 11.8664 10.0841 11.8196 10.0549C11.6734 9.97298 11.6207 9.79168 11.7026 9.64546L11.7085 9.65131ZM10.2112 12.4703C10.451 11.9966 10.7025 11.5228 10.9481 11.055C11.0242 10.9087 11.2113 10.8503 11.3575 10.9321C11.5038 11.0082 11.5622 11.1953 11.4804 11.3415C11.2347 11.8036 10.9891 12.2773 10.7493 12.7452C10.6967 12.8504 10.5914 12.9089 10.4803 12.9089C10.4335 12.9089 10.3867 12.8972 10.3458 12.8738C10.1995 12.7978 10.1411 12.6165 10.2112 12.4703ZM8.81344 15.3419C9.03569 14.8623 9.26378 14.3769 9.49772 13.8973C9.5679 13.7453 9.7492 13.6868 9.90126 13.757C10.0533 13.8271 10.1118 14.0084 10.0416 14.1605C9.81354 14.6342 9.5796 15.1138 9.3632 15.5934C9.31057 15.7045 9.20529 15.7688 9.08832 15.7688C9.04738 15.7688 9.00059 15.7572 8.95965 15.7396C8.80759 15.6694 8.74326 15.4881 8.81344 15.3419ZM7.52092 18.2603C7.72562 17.7749 7.93617 17.2778 8.15256 16.7923C8.22274 16.6403 8.3982 16.5701 8.55026 16.6403C8.70232 16.7105 8.7725 16.8859 8.70232 17.038C8.49177 17.5176 8.27538 18.0088 8.07653 18.4943C8.02974 18.6112 7.91862 18.6814 7.7958 18.6814C7.75486 18.6814 7.71977 18.6756 7.67883 18.658C7.52677 18.5937 7.45074 18.4182 7.51507 18.2603H7.52092ZM7.99465 44.1516C7.99465 44.1516 7.96541 44.1516 7.94786 44.1516C7.78411 44.1283 7.67298 43.9703 7.69638 43.8066C7.77826 43.2919 7.87183 42.7597 7.97711 42.2099C8.00635 42.0462 8.16426 41.9409 8.32802 41.9702C8.49177 41.9994 8.59705 42.1632 8.5678 42.3211C8.46253 42.8591 8.36896 43.3855 8.29293 43.8943C8.26953 44.0405 8.14086 44.1516 7.99465 44.1516ZM8.08823 45.4734C8.02974 46.0173 7.9888 46.5495 7.96541 47.0584C7.95956 47.2221 7.82504 47.3449 7.66713 47.3449H7.65544C7.49168 47.3391 7.36301 47.1987 7.36886 47.0291C7.39226 46.5086 7.43904 45.9647 7.49753 45.4091C7.51507 45.2453 7.66129 45.1225 7.83089 45.14C7.99465 45.1576 8.11747 45.3038 8.09992 45.4734H8.08823ZM1.10511 41.4262L1.1285 41.2683C1.1519 41.1046 1.30396 40.9876 1.47357 41.0168C1.63732 41.0402 1.7543 41.1923 1.72505 41.3619L1.70166 41.5198C1.63732 41.9702 1.57884 42.438 1.54375 42.9176C1.53205 43.0755 1.39754 43.1925 1.24548 43.1925C1.23963 43.1925 1.22793 43.1925 1.22208 43.1925C1.05832 43.1808 0.935504 43.0346 0.947201 42.865C0.988141 42.3737 1.04078 41.8883 1.11096 41.4262H1.10511ZM0.853625 45.0348C0.853625 44.8476 0.853625 44.6605 0.853625 44.4675C0.853625 44.3037 0.999838 44.1692 1.1636 44.1692C1.32735 44.1692 1.46187 44.3096 1.46187 44.4792C1.46187 44.6663 1.46187 44.8476 1.46187 45.0348C1.46187 45.3681 1.46772 45.7073 1.47942 46.0524C1.47942 46.2162 1.3566 46.3565 1.18699 46.3624C1.18699 46.3624 1.18114 46.3624 1.17529 46.3624C1.01153 46.3624 0.877019 46.2337 0.877019 46.07C0.865322 45.719 0.859474 45.3681 0.859474 45.0289L0.853625 45.0348ZM1.12266 49.2749C1.05832 48.7427 0.999838 48.2047 0.958898 47.6783C0.947201 47.5145 1.07002 47.3683 1.23378 47.3566C1.40338 47.3449 1.54375 47.4678 1.55545 47.6315C1.59639 48.152 1.64902 48.6784 1.71336 49.1989C1.7309 49.3627 1.61393 49.5147 1.45017 49.5323C1.43848 49.5323 1.42678 49.5323 1.41508 49.5323C1.26302 49.5323 1.13435 49.4211 1.11681 49.2691L1.12266 49.2749ZM1.86542 51.8951C1.86542 51.8951 1.82448 51.9009 1.80108 51.9009C1.66072 51.9009 1.5379 51.8073 1.50866 51.6611C1.50866 51.6494 1.44432 51.3629 1.3566 50.8599C1.32735 50.6961 1.43848 50.5382 1.60223 50.5148C1.76599 50.4856 1.9239 50.5967 1.9473 50.7605C2.02917 51.2517 2.09351 51.5325 2.09351 51.5383C2.1286 51.7021 2.02333 51.86 1.86542 51.8951ZM1.97069 39.7887C1.9473 39.9349 1.81863 40.0401 1.67242 40.0401C1.65487 40.0401 1.63732 40.0401 1.62563 40.0401C1.46187 40.0109 1.35075 39.8588 1.37999 39.6951C1.46187 39.2097 1.5496 38.6833 1.65487 38.1218C1.68411 37.9581 1.84202 37.847 2.00578 37.8762C2.16954 37.9054 2.28066 38.0634 2.25142 38.2271C2.15199 38.7886 2.05842 39.3091 1.98239 39.7887H1.97069ZM2.85966 35.1099C2.74269 35.6479 2.63742 36.1684 2.53799 36.6656C2.50875 36.8118 2.38593 36.9112 2.24557 36.9112C2.22802 36.9112 2.20463 36.9112 2.18708 36.9112C2.02333 36.8761 1.91805 36.7182 1.9473 36.5544C2.05257 36.0339 2.15784 35.5134 2.26896 34.9929C2.30405 34.8291 2.46196 34.7239 2.62572 34.7648C2.78948 34.7999 2.88891 34.9578 2.85381 35.1216L2.85966 35.1099ZM3.57903 32.0218C3.44451 32.5482 3.32169 33.0629 3.20472 33.5659C3.16963 33.7062 3.04681 33.7998 2.9123 33.7998C2.88891 33.7998 2.86551 33.7998 2.84212 33.7939C2.67836 33.7589 2.57893 33.5951 2.61987 33.4313C2.73684 32.9284 2.85966 32.4137 2.99418 31.8815C3.03512 31.7177 3.19888 31.6241 3.36263 31.6651C3.52639 31.706 3.61997 31.8698 3.57903 32.0335V32.0218ZM4.39782 28.9631C4.25161 29.4836 4.10539 29.9924 3.97673 30.4895C3.94164 30.6241 3.81882 30.7118 3.6843 30.7118C3.66091 30.7118 3.63167 30.7118 3.60827 30.7001C3.45036 30.6591 3.35094 30.4895 3.39773 30.3316C3.53224 29.8287 3.6726 29.314 3.82467 28.7935C3.87145 28.6356 4.03521 28.542 4.19897 28.5888C4.35688 28.6356 4.45046 28.7993 4.40367 28.9631H4.39782ZM5.32188 25.9277C5.15813 26.4307 5.00022 26.9395 4.84815 27.4425C4.80722 27.5711 4.69025 27.6589 4.56158 27.6589C4.53234 27.6589 4.50309 27.6589 4.47385 27.6472C4.31594 27.6004 4.22236 27.4308 4.275 27.2729C4.42706 26.764 4.59082 26.2552 4.75458 25.7522C4.80722 25.5943 4.97682 25.5066 5.13473 25.5592C5.29264 25.6119 5.38037 25.7815 5.32773 25.9394L5.32188 25.9277ZM6.35122 22.9274C6.16992 23.4245 5.99446 23.9275 5.82486 24.4246C5.78392 24.5475 5.66695 24.6293 5.53828 24.6293C5.50904 24.6293 5.47395 24.6293 5.43885 24.6118C5.28094 24.5592 5.19907 24.3895 5.2517 24.2316C5.42131 23.7345 5.59676 23.2257 5.77807 22.7286C5.83655 22.5707 6.00616 22.4888 6.16407 22.5473C6.32198 22.6058 6.40386 22.7754 6.34537 22.9333L6.35122 22.9274ZM6.62025 21.6349C6.58516 21.6349 6.55007 21.6291 6.51498 21.6174C6.35707 21.5589 6.28104 21.3834 6.33952 21.2255C6.52668 20.7284 6.72553 20.2313 6.91853 19.74C6.98286 19.5879 7.15831 19.5119 7.31038 19.5704C7.46244 19.6347 7.53847 19.8102 7.47998 19.9622C7.28698 20.4477 7.09398 20.9448 6.90098 21.4419C6.85419 21.5647 6.74307 21.6349 6.62025 21.6349ZM7.77241 50.5558C7.6262 50.5558 7.49753 50.4446 7.47413 50.2984C7.40395 49.7896 7.35716 49.2398 7.33962 48.6667C7.33962 48.5029 7.46244 48.3626 7.63204 48.3567C7.7958 48.3509 7.93617 48.4795 7.94201 48.6491C7.95956 49.2048 8.0005 49.7311 8.07068 50.2165C8.09408 50.3803 7.97711 50.5324 7.81335 50.5558C7.80165 50.5558 7.78411 50.5558 7.77241 50.5558ZM9.06493 53.4449C9.00644 53.5034 8.92456 53.5385 8.84853 53.5385C8.7725 53.5385 8.70232 53.5093 8.64384 53.4566C8.59705 53.4157 8.18765 53.0004 7.83674 51.9126C7.7841 51.7547 7.87183 51.5851 8.02974 51.5325C8.18765 51.4798 8.35726 51.5676 8.4099 51.7255C8.71402 52.6671 9.05908 53.018 9.05908 53.0238C9.17605 53.1408 9.1819 53.328 9.05908 53.4508L9.06493 53.4449ZM9.26963 39.198C9.14096 39.7243 9.01814 40.2507 8.90702 40.7595C8.87778 40.8999 8.74911 40.9935 8.61459 40.9935C8.5912 40.9935 8.5678 40.9935 8.55026 40.9876C8.3865 40.9525 8.28708 40.7888 8.32217 40.625C8.43914 40.1162 8.56196 39.584 8.69062 39.0517C8.73156 38.888 8.88947 38.7886 9.05323 38.8295C9.21699 38.8704 9.31641 39.0342 9.27547 39.1921L9.26963 39.198ZM10.0709 36.0924C9.92466 36.6188 9.79014 37.1334 9.65563 37.6423C9.62054 37.7768 9.49772 37.8704 9.3632 37.8704C9.33981 37.8704 9.31057 37.8704 9.28717 37.8587C9.12341 37.8177 9.02984 37.654 9.07078 37.4902C9.20529 36.9814 9.33981 36.4609 9.48602 35.9345C9.53281 35.7766 9.69657 35.683 9.85448 35.724C10.0124 35.7707 10.1118 35.9345 10.065 36.0924H10.0709ZM10.9715 33.0102C10.8136 33.5308 10.6616 34.0396 10.5095 34.5484C10.4686 34.6829 10.3516 34.7648 10.2229 34.7648C10.1937 34.7648 10.1644 34.7648 10.1411 34.7531C9.98314 34.7063 9.88957 34.5367 9.93636 34.3788C10.0826 33.87 10.2405 33.3553 10.3984 32.8348C10.4452 32.6769 10.6148 32.5833 10.7727 32.6359C10.9306 32.6827 11.0242 32.8523 10.9715 33.0102ZM11.9541 29.9573C11.7845 30.4661 11.6149 30.975 11.4511 31.4779C11.4102 31.6066 11.2932 31.6885 11.1645 31.6885C11.1353 31.6885 11.1002 31.6885 11.071 31.6768C10.9131 31.6241 10.8253 31.4545 10.878 31.2966C11.0417 30.7878 11.2113 30.279 11.3809 29.7643C11.4336 29.6064 11.6032 29.5245 11.7611 29.5772C11.919 29.6298 12.0009 29.7994 11.9482 29.9573H11.9541ZM12.1939 28.6414C12.1588 28.6414 12.1237 28.6414 12.0945 28.6239C11.9365 28.5712 11.8547 28.3958 11.9132 28.2379C12.0886 27.7349 12.2758 27.2261 12.4629 26.7231C12.5214 26.5652 12.691 26.4892 12.8489 26.5476C13.0068 26.6061 13.0829 26.7816 13.0244 26.9336C12.8372 27.4366 12.6559 27.9396 12.4805 28.4426C12.4395 28.5654 12.3225 28.6414 12.1939 28.6414Z" fill="#EDEDED"/>
<path d="M37.5541 15.9665C36.9693 3.9069 32.4952 -0.0232903 30.4892 0.000103712C22.6112 0.0936798 18.6752 1.08208 18.6752 1.08208C28.7404 1.45638 25.4126 43.1621 25.4126 43.1621C31.8168 20.3354 36.7237 17.1304 37.5541 15.9665ZM26.8455 36.9568C26.8338 37.1147 26.6993 37.2317 26.5473 37.2317C26.5356 37.2317 26.5297 37.2317 26.518 37.2317C26.3543 37.2141 26.2314 37.0679 26.2431 36.9042C26.2431 36.9042 26.2899 36.372 26.366 35.4479C26.3777 35.2841 26.5239 35.1555 26.6876 35.173C26.8514 35.1847 26.98 35.3309 26.9625 35.4947C26.8923 36.4304 26.8397 36.9627 26.8397 36.9627L26.8455 36.9568ZM27.0853 33.8805C27.0736 34.0384 26.945 34.1612 26.787 34.1612C26.7812 34.1612 26.7753 34.1612 26.7637 34.1612C26.5999 34.1495 26.4712 34.0033 26.4829 33.8396C26.518 33.3541 26.5531 32.8161 26.5882 32.2371C26.5999 32.0733 26.7403 31.9446 26.9099 31.9563C27.0736 31.968 27.2023 32.1084 27.1906 32.278C27.1555 32.857 27.1204 33.3951 27.0853 33.8863V33.8805ZM27.2842 30.6638C27.2783 30.8276 27.1438 30.9504 26.9859 30.9504C26.9859 30.9504 26.9742 30.9504 26.9684 30.9504C26.8046 30.9387 26.6759 30.7983 26.6818 30.6346C26.711 30.1199 26.7344 29.5818 26.7578 29.0321C26.7637 28.8683 26.904 28.728 27.0736 28.7455C27.2374 28.7514 27.366 28.8917 27.3602 29.0613C27.3368 29.6169 27.3076 30.155 27.2842 30.6697V30.6638ZM27.4245 27.4471C27.4187 27.6109 27.2842 27.7396 27.1263 27.7396C27.1263 27.7396 27.1204 27.7396 27.1146 27.7396C26.9508 27.7337 26.8163 27.5934 26.8221 27.4296C26.8397 26.9032 26.8572 26.371 26.8748 25.8271C26.8748 25.6633 27.0151 25.523 27.1847 25.5347C27.3485 25.5347 27.483 25.675 27.4772 25.8446C27.4596 26.3944 27.4479 26.9266 27.4245 27.453V27.4471ZM27.5123 24.2246C27.5123 24.3884 27.3777 24.5229 27.2081 24.5229C27.0444 24.5229 26.9099 24.3825 26.9099 24.2188C26.9216 23.6865 26.9274 23.1543 26.9274 22.6163C26.9274 22.4525 27.0619 22.318 27.2315 22.318C27.3953 22.318 27.5298 22.4525 27.5298 22.6221C27.5298 23.166 27.5181 23.7041 27.5123 24.2363V24.2246ZM36.092 15.0074C36.1213 15.329 36.1505 15.6624 36.1739 16.0016C36.1856 16.1654 36.0628 16.3116 35.8932 16.3233C35.8873 16.3233 35.8756 16.3233 35.8698 16.3233C35.7119 16.3233 35.5832 16.2005 35.5715 16.0426C35.5481 15.7092 35.5189 15.3758 35.4896 15.0542C35.4721 14.8904 35.5949 14.7442 35.7645 14.7266C35.9283 14.7149 36.0745 14.8319 36.092 15.0015V15.0074ZM35.6943 11.8024C35.7762 12.3171 35.8522 12.8551 35.9166 13.4049C35.9341 13.5686 35.8171 13.7207 35.6534 13.7382C35.6417 13.7382 35.63 13.7382 35.6183 13.7382C35.4662 13.7382 35.3376 13.6271 35.32 13.4751C35.2557 12.937 35.1796 12.4048 35.0978 11.896C35.0744 11.7322 35.1855 11.5743 35.3493 11.5509C35.513 11.5217 35.6709 11.6386 35.6943 11.8024ZM35.051 8.62665C35.1797 9.12962 35.3025 9.66184 35.4136 10.2057C35.4487 10.3695 35.3434 10.5274 35.1797 10.5625C35.1621 10.5625 35.1387 10.5684 35.1212 10.5684C34.9808 10.5684 34.8521 10.4689 34.8287 10.3286C34.7176 9.7905 34.6006 9.26999 34.4778 8.77871C34.4369 8.61495 34.5363 8.45119 34.6942 8.41025C34.8521 8.36932 35.0217 8.46874 35.0627 8.62665H35.051ZM33.6532 5.36903C33.8053 5.3047 33.9807 5.38073 34.045 5.53279C34.2439 6.01237 34.431 6.52704 34.6006 7.0651C34.6533 7.22301 34.5656 7.39261 34.4076 7.44525C34.3784 7.45695 34.3433 7.45695 34.3141 7.45695C34.1854 7.45695 34.0684 7.37507 34.0275 7.2464C33.8579 6.72589 33.6766 6.22291 33.4836 5.76088C33.4193 5.60882 33.4953 5.43337 33.6473 5.36903H33.6532ZM32.0624 2.59099C32.1969 2.49157 32.3841 2.52081 32.4835 2.65533C32.7876 3.07057 33.08 3.5443 33.3549 4.05312C33.4309 4.19933 33.3783 4.38063 33.2321 4.46251C33.1853 4.48591 33.1385 4.4976 33.0917 4.4976C32.9865 4.4976 32.8812 4.43912 32.8286 4.33969C32.5712 3.85427 32.2905 3.40978 32.0039 3.01208C31.9045 2.87757 31.9337 2.69042 32.0682 2.59099H32.0624ZM29.5358 0.707773C29.5768 0.549863 29.7405 0.450439 29.8984 0.491378C29.9218 0.497227 30.5476 0.655136 31.3781 1.40959C31.5009 1.52072 31.5126 1.71372 31.4015 1.83653C31.343 1.90087 31.2612 1.93596 31.1793 1.93596C31.1091 1.93596 31.0331 1.91257 30.9746 1.85993C30.2669 1.21659 29.7581 1.07623 29.7522 1.07623C29.5943 1.03529 29.4949 0.871531 29.5358 0.707773ZM27.5357 21.0021C27.5357 21.1658 27.4011 21.3062 27.2374 21.3062C27.0736 21.3062 26.9391 21.1717 26.9333 21.0079C26.9333 20.4757 26.9274 19.9377 26.9157 19.4054C26.9157 19.2417 27.0444 19.1013 27.214 19.1013C27.3777 19.1013 27.5123 19.23 27.5181 19.3996C27.5298 19.9377 27.5357 20.4757 27.5357 21.0138V21.0021ZM27.407 16.1654C27.4304 16.68 27.4538 17.224 27.4772 17.7796C27.4772 17.9433 27.3544 18.0837 27.1847 18.0895C27.1847 18.0895 27.1789 18.0895 27.173 18.0895C27.0093 18.0895 26.8748 17.9609 26.8748 17.7971C26.8572 17.2473 26.8338 16.7093 26.8104 16.1946C26.8046 16.0309 26.9274 15.8846 27.097 15.8788C27.2666 15.8729 27.407 15.9958 27.4128 16.1654H27.407ZM27.173 12.9487C27.2023 13.2236 27.2257 13.5043 27.2491 13.7909C27.2725 14.0482 27.29 14.3055 27.3076 14.5629C27.3193 14.7266 27.1964 14.8729 27.0268 14.8846C27.021 14.8846 27.0093 14.8846 27.0034 14.8846C26.8455 14.8846 26.7169 14.7617 26.7052 14.6038C26.6876 14.3465 26.6701 14.095 26.6467 13.8377C26.6233 13.5569 26.5999 13.2821 26.5707 13.0072C26.5531 12.8434 26.6759 12.6914 26.8397 12.6797C27.0034 12.6621 27.1555 12.7849 27.1672 12.9487H27.173ZM26.7169 9.74371C26.8163 10.2584 26.904 10.7964 26.98 11.3404C27.0034 11.5041 26.8865 11.6562 26.7227 11.6796C26.711 11.6796 26.6935 11.6796 26.6818 11.6796C26.5356 11.6796 26.4069 11.5684 26.3835 11.4222C26.3075 10.8842 26.2197 10.3578 26.1262 9.84899C26.0969 9.68523 26.2022 9.52732 26.366 9.49808C26.5297 9.46299 26.6876 9.57411 26.7169 9.73787V9.74371ZM23.8277 2.5559C23.7751 2.59099 23.7166 2.60854 23.6581 2.60854C23.5645 2.60854 23.4651 2.56175 23.4066 2.47402C22.8452 1.64938 22.4358 1.31602 22.4358 1.31602C22.3071 1.21074 22.2837 1.02359 22.389 0.894925C22.4942 0.766258 22.6814 0.742864 22.8101 0.848137C22.8276 0.865683 23.2896 1.23414 23.9037 2.14066C23.9973 2.28102 23.9622 2.46817 23.8219 2.56175L23.8277 2.5559ZM25.2313 5.43921C25.1963 5.45091 25.1553 5.46261 25.1202 5.46261C24.9974 5.46261 24.8863 5.39243 24.8395 5.26961C24.6406 4.76079 24.4242 4.27536 24.1962 3.83087C24.1201 3.68466 24.1786 3.50336 24.3307 3.42733C24.4769 3.3513 24.6582 3.40978 24.7342 3.56184C24.9682 4.02388 25.1963 4.52685 25.401 5.05321C25.4594 5.20527 25.3834 5.38073 25.2313 5.44506V5.43921ZM25.787 8.29913C25.6583 7.77277 25.5179 7.2581 25.3659 6.76682C25.3191 6.60891 25.4068 6.43931 25.5647 6.39252C25.7226 6.34573 25.8922 6.43346 25.939 6.59137C26.0969 7.09434 26.2373 7.62071 26.3718 8.15877C26.4127 8.32253 26.3133 8.48629 26.1496 8.52138C26.1262 8.52138 26.1028 8.52722 26.0794 8.52722C25.9449 8.52722 25.822 8.43365 25.787 8.29913Z" fill="#EDEDED"/>
<path d="M40.1981 13.7968C38.9992 14.3933 31.8289 18.7563 25.4072 43.1563L37.5487 42.2205C37.5487 42.2205 39.3735 32.9448 41.3912 28.4531C43.4089 23.9615 46.3273 19.4757 46.3273 19.4757C46.3273 19.4757 45.2044 10.7965 40.1922 13.7909L40.1981 13.7968ZM40.3209 15.5805C40.7245 15.2004 41.1339 14.8378 41.5433 14.5044C41.6719 14.3992 41.8649 14.4167 41.9702 14.5454C42.0755 14.674 42.0579 14.867 41.9293 14.9723C41.5316 15.2998 41.1339 15.6507 40.742 16.0192C40.6835 16.0718 40.6075 16.1011 40.5373 16.1011C40.4554 16.1011 40.3794 16.0718 40.3209 16.0075C40.2039 15.8847 40.2098 15.6975 40.3326 15.5805H40.3209ZM38.116 17.9667C38.4669 17.5398 38.8237 17.1246 39.1805 16.7386C39.2916 16.6157 39.4846 16.6099 39.6074 16.721C39.7302 16.8321 39.7361 17.0251 39.6249 17.1479C39.274 17.5281 38.9231 17.9317 38.5839 18.3469C38.5254 18.4171 38.4377 18.458 38.35 18.458C38.2856 18.458 38.2155 18.4346 38.157 18.3878C38.0283 18.2826 38.0108 18.0954 38.116 17.9609V17.9667ZM36.1919 20.581C36.496 20.1248 36.8118 19.6804 37.1218 19.2534C37.2212 19.1189 37.4084 19.0897 37.5429 19.1891C37.6774 19.2885 37.7066 19.4757 37.6072 19.6102C37.2972 20.0313 36.9931 20.4699 36.6948 20.9144C36.6364 21.0021 36.5428 21.0489 36.4434 21.0489C36.3849 21.0489 36.3264 21.0314 36.2737 20.9963C36.1334 20.9027 36.0983 20.7155 36.1919 20.581ZM28.7643 40.0682C28.5245 41.0449 28.4075 41.6298 28.4075 41.6356C28.3783 41.7819 28.2554 41.8754 28.1151 41.8754C28.0975 41.8754 28.0741 41.8754 28.0566 41.8696C27.8928 41.8345 27.7876 41.6766 27.8227 41.5128C27.8227 41.4894 27.9396 40.9163 28.1853 39.922C28.2262 39.7583 28.39 39.6588 28.5479 39.6998C28.7116 39.7407 28.8111 39.9045 28.7701 40.0624L28.7643 40.0682ZM29.6006 36.9685C29.4485 37.4832 29.3023 38.0037 29.1678 38.5125C29.1327 38.6471 29.0099 38.7348 28.8754 38.7348C28.852 38.7348 28.8228 38.7348 28.7994 38.7231C28.6415 38.6821 28.542 38.5125 28.5888 38.3546C28.7292 37.84 28.8754 37.3136 29.0275 36.7989C29.0742 36.641 29.2438 36.5474 29.4018 36.5942C29.5597 36.641 29.6532 36.8106 29.6065 36.9685H29.6006ZM30.5598 33.9039C30.3902 34.4069 30.2205 34.9216 30.0626 35.4304C30.0217 35.559 29.9047 35.6409 29.7761 35.6409C29.7468 35.6409 29.7176 35.6409 29.6883 35.6292C29.5304 35.5766 29.4427 35.4128 29.4895 35.2491C29.6532 34.7344 29.817 34.2197 29.9925 33.7109C30.0451 33.553 30.2147 33.4711 30.3726 33.5238C30.5305 33.5764 30.6124 33.746 30.5598 33.9039ZM31.6534 30.8919C31.4604 31.3832 31.2733 31.892 31.092 32.395C31.0452 32.5178 30.9341 32.5939 30.8112 32.5939C30.7762 32.5939 30.7411 32.5939 30.706 32.5763C30.5481 32.5178 30.4662 32.3482 30.5247 32.1903C30.706 31.6815 30.899 31.1727 31.092 30.6755C31.1505 30.5176 31.3259 30.4416 31.4838 30.5059C31.6417 30.5644 31.7178 30.7399 31.6534 30.8978V30.8919ZM32.8816 27.9326C32.6652 28.4122 32.4547 28.9093 32.25 29.4064C32.2032 29.5234 32.0921 29.5936 31.9692 29.5936C31.9283 29.5936 31.8932 29.5877 31.8523 29.5702C31.7002 29.5058 31.6242 29.3304 31.6885 29.1783C31.8991 28.6812 32.1096 28.1782 32.326 27.6928C32.3962 27.5407 32.5716 27.4706 32.7237 27.5407C32.8758 27.6109 32.9459 27.7864 32.8758 27.9384L32.8816 27.9326ZM34.2677 25.0493C34.0279 25.5113 33.7881 25.9967 33.5542 26.4822C33.5016 26.5874 33.3963 26.6518 33.2793 26.6518C33.2384 26.6518 33.1916 26.6401 33.1506 26.6225C32.9986 26.5523 32.9401 26.371 33.0103 26.219C33.2442 25.7277 33.4899 25.2423 33.7296 24.7686C33.8057 24.6223 33.987 24.5639 34.1332 24.6399C34.2794 24.7159 34.3379 24.8972 34.2619 25.0434L34.2677 25.0493ZM34.7648 23.7977C34.7122 23.7977 34.6654 23.786 34.6186 23.7568C34.4724 23.6749 34.4198 23.4936 34.5017 23.3474C34.7707 22.8678 35.0456 22.3999 35.3204 21.9496C35.4082 21.8092 35.5953 21.7624 35.7357 21.8501C35.876 21.9379 35.9228 22.125 35.8351 22.2654C35.5661 22.7099 35.2912 23.1719 35.028 23.6456C34.9754 23.7451 34.8701 23.7977 34.7648 23.7977ZM36.2211 40.887C36.1977 41.0332 36.069 41.1385 35.9228 41.1385C35.9053 41.1385 35.8877 41.1385 35.8702 41.1385C35.7064 41.1093 35.5953 40.9572 35.6246 40.7935C35.7123 40.2671 35.8059 39.729 35.9053 39.2027C35.9345 39.0389 36.0924 38.9278 36.2562 38.9629C36.42 38.9921 36.5252 39.15 36.496 39.3138C36.3966 39.8343 36.303 40.3665 36.2153 40.8929L36.2211 40.887ZM37.1627 36.179C37.0458 36.6878 36.9229 37.2142 36.8118 37.7405C36.7826 37.8809 36.6539 37.9803 36.5194 37.9803C36.496 37.9803 36.4784 37.9803 36.4551 37.9745C36.2913 37.9394 36.186 37.7815 36.2211 37.6177C36.3322 37.0855 36.4492 36.5533 36.572 36.0445C36.613 35.8807 36.7709 35.7813 36.9346 35.8222C37.0984 35.8632 37.1978 36.0211 37.1569 36.1848L37.1627 36.179ZM37.9698 33.0851C37.8236 33.5939 37.6832 34.1086 37.5487 34.6291C37.5136 34.7636 37.3908 34.8572 37.2563 34.8572C37.2329 34.8572 37.2037 34.8572 37.1803 34.8455C37.0165 34.8046 36.9229 34.6408 36.9639 34.4771C37.0984 33.9566 37.2446 33.4302 37.3908 32.9214C37.4376 32.7635 37.6014 32.6699 37.7651 32.7167C37.923 32.7635 38.0166 32.9272 37.9698 33.091V33.0851ZM38.9407 30.0381C38.7652 30.5352 38.5956 31.044 38.4377 31.5528C38.3968 31.6815 38.2798 31.7634 38.1511 31.7634C38.1219 31.7634 38.0926 31.7634 38.0575 31.7517C37.8996 31.699 37.8119 31.5294 37.8587 31.3715C38.0225 30.8568 38.1921 30.3363 38.3675 29.8392C38.4201 29.6813 38.5956 29.5994 38.7535 29.6521C38.9114 29.7047 38.9933 29.8801 38.9407 30.0381ZM40.0811 27.0553C39.8764 27.5407 39.6776 28.0379 39.4846 28.535C39.4378 28.6578 39.3267 28.728 39.2038 28.728C39.1688 28.728 39.1337 28.7221 39.0986 28.7104C38.9407 28.652 38.8646 28.4765 38.9231 28.3186C39.1161 27.8156 39.3208 27.3068 39.5255 26.8155C39.5899 26.6635 39.7653 26.5874 39.9232 26.6518C40.0753 26.7161 40.1513 26.8916 40.087 27.0495L40.0811 27.0553ZM41.4263 24.1603C41.1923 24.6223 40.9526 25.1078 40.7303 25.5932C40.6777 25.7043 40.5724 25.7686 40.4554 25.7686C40.4145 25.7686 40.3677 25.7569 40.3268 25.7394C40.1747 25.6692 40.1104 25.4879 40.1805 25.3417C40.4086 24.8446 40.6484 24.3533 40.8882 23.8854C40.9643 23.7392 41.1456 23.6807 41.2918 23.7568C41.438 23.8328 41.4965 24.0141 41.4204 24.1603H41.4263ZM42.9995 21.3881C42.7246 21.8209 42.4498 22.2829 42.1807 22.7508C42.1281 22.8502 42.0228 22.9029 41.9176 22.9029C41.8649 22.9029 41.8181 22.8912 41.7713 22.8619C41.6251 22.7801 41.5783 22.5988 41.6602 22.4525C41.9351 21.973 42.2158 21.5051 42.4966 21.0606C42.5843 20.9202 42.7714 20.8793 42.9118 20.967C43.0522 21.0548 43.0931 21.2419 43.0054 21.3823L42.9995 21.3881ZM43.8944 20.0781C43.8359 20.1599 43.7423 20.2009 43.6487 20.2009C43.5844 20.2009 43.5259 20.1833 43.4733 20.1424C43.3387 20.043 43.3095 19.8558 43.4089 19.7213C44.0347 18.8616 44.4324 18.4522 44.4441 18.4346C44.5611 18.3177 44.7482 18.3118 44.8711 18.4288C44.988 18.5457 44.9939 18.7329 44.8769 18.8557C44.8769 18.8557 44.4909 19.2534 43.8944 20.0722V20.0781Z" fill="#EDEDED"/>
<path d="M55.0452 19.4981C54.8405 17.5213 54.5013 13.1935 52.3198 12.8835C46.4538 12.3396 41.8159 13.1935 41.8159 13.1935C47.4012 13.2344 46.524 25.4285 47.2082 30.3354C47.8925 35.2423 50.2787 38.0379 53.4837 38.0379C56.6887 38.0379 58.3263 36.0611 59.2796 34.7627C55.9401 35.447 55.2558 21.4691 55.0511 19.4923L55.0452 19.4981ZM54.5306 29.3529C54.6592 29.8909 54.7996 30.4056 54.9575 30.8735C55.0101 31.0314 54.9224 31.201 54.7645 31.2536C54.7353 31.2653 54.7002 31.2712 54.6709 31.2712C54.5423 31.2712 54.4253 31.1893 54.3844 31.0665C54.2206 30.5811 54.0744 30.0488 53.9457 29.4932C53.9048 29.3295 54.0101 29.1716 54.168 29.1306C54.3317 29.0897 54.4896 29.195 54.5306 29.3529ZM46.5825 15.7142C46.5415 15.7317 46.5006 15.7434 46.4596 15.7434C46.3427 15.7434 46.2374 15.6791 46.1848 15.5679C45.7812 14.6848 45.4478 14.2052 45.4478 14.1994C45.3543 14.0649 45.3835 13.8777 45.5239 13.7783C45.6584 13.6847 45.8455 13.714 45.945 13.8543C45.9567 13.8777 46.3076 14.3748 46.7404 15.3165C46.8105 15.4685 46.7404 15.644 46.5941 15.7142H46.5825ZM47.2082 18.5507C47.0796 18.036 46.9334 17.5213 46.7638 17.0359C46.7111 16.878 46.793 16.7084 46.9509 16.6558C47.1088 16.6031 47.2784 16.685 47.3311 16.8429C47.5065 17.3517 47.6586 17.8781 47.7931 18.4103C47.834 18.5741 47.7346 18.7378 47.5708 18.7729C47.5475 18.7788 47.5241 18.7788 47.5007 18.7788C47.3662 18.7788 47.2433 18.6852 47.2082 18.5507ZM47.5182 20.1005C47.4948 19.9368 47.6059 19.7789 47.7697 19.7555C47.9335 19.7321 48.0914 19.8432 48.1148 20.007C48.1966 20.5392 48.2668 21.0831 48.3078 21.627C48.3195 21.7908 48.1966 21.937 48.0329 21.9487C48.027 21.9487 48.0153 21.9487 48.0095 21.9487C47.8516 21.9487 47.7229 21.8317 47.7112 21.6738C47.6703 21.1474 47.6059 20.6152 47.5241 20.1005H47.5182ZM47.7697 23.3465V23.2587C47.7697 23.095 47.9042 22.9546 48.068 22.9546C48.2317 22.9546 48.3662 23.0891 48.3721 23.2529V23.3406C48.3721 23.8611 48.3779 24.3699 48.3955 24.8495C48.3955 25.0133 48.2668 25.1536 48.1031 25.1595C48.1031 25.1595 48.0972 25.1595 48.0914 25.1595C47.9276 25.1595 47.7931 25.0308 47.7931 24.8671C47.7814 24.3758 47.7697 23.8611 47.7697 23.3406V23.3465ZM48.0095 28.1071C47.951 27.5925 47.9042 27.0486 47.8691 26.493C47.8574 26.3292 47.9861 26.183 48.1499 26.1713C48.3136 26.1596 48.4598 26.2883 48.4715 26.452C48.5066 27.0018 48.5534 27.5398 48.6119 28.0428C48.6294 28.2066 48.5125 28.3586 48.3429 28.3762C48.3312 28.3762 48.3195 28.3762 48.3078 28.3762C48.1557 28.3762 48.027 28.265 48.0095 28.1071ZM48.8575 31.5461C48.723 31.5461 48.6002 31.4525 48.5651 31.318C48.4423 30.8208 48.3312 30.2828 48.2317 29.7213C48.2025 29.5576 48.3136 29.3997 48.4774 29.3763C48.6411 29.347 48.799 29.4581 48.8224 29.6219C48.916 30.1717 49.0213 30.6922 49.1441 31.1718C49.185 31.3355 49.0856 31.4993 48.9277 31.5402C48.9043 31.5461 48.8809 31.5519 48.8517 31.5519L48.8575 31.5461ZM50.1442 34.5054C50.0974 34.5346 50.0448 34.5463 49.998 34.5463C49.8927 34.5463 49.7933 34.4937 49.7348 34.3943C49.4833 33.9498 49.2494 33.441 49.0447 32.8912C48.9862 32.7333 49.0681 32.5637 49.226 32.5052C49.3839 32.4467 49.5535 32.5286 49.612 32.6865C49.805 33.207 50.0214 33.6866 50.2612 34.1019C50.343 34.2481 50.2904 34.4294 50.15 34.5113L50.1442 34.5054ZM52.5011 36.5992C52.4485 36.7103 52.3432 36.7746 52.2263 36.7746C52.1853 36.7746 52.1385 36.7629 52.0976 36.7454C51.6005 36.5114 51.1326 36.1722 50.7173 35.7453C50.6004 35.6283 50.6062 35.4353 50.7232 35.3183C50.8402 35.2014 51.0332 35.2072 51.1501 35.3242C51.5127 35.6985 51.9163 35.9909 52.3491 36.1956C52.5011 36.2658 52.5655 36.4471 52.4953 36.5992H52.5011ZM52.5304 15.41C52.4134 15.41 52.3023 15.3399 52.2497 15.2229C51.8753 14.3105 51.5127 13.9538 51.5069 13.9479C51.3899 13.8309 51.3841 13.6438 51.4952 13.521C51.6063 13.3981 51.7993 13.3923 51.9163 13.5093C51.9338 13.5268 52.3666 13.9421 52.7994 14.9889C52.8637 15.141 52.7877 15.3165 52.6357 15.3808C52.6006 15.3983 52.5596 15.4042 52.5187 15.4042L52.5304 15.41ZM52.9807 18.2641C52.9164 17.7143 52.8228 17.1938 52.7117 16.7143C52.6766 16.5505 52.776 16.3926 52.9398 16.3516C53.1035 16.3166 53.2614 16.416 53.3024 16.5797C53.4194 17.0827 53.5129 17.6266 53.5831 18.1939C53.6007 18.3577 53.4837 18.5097 53.3199 18.5273C53.3082 18.5273 53.2965 18.5273 53.2848 18.5273C53.1328 18.5273 53.0041 18.4162 52.9866 18.2641H52.9807ZM53.1211 20.7439C53.1211 20.4339 53.1211 20.1298 53.1035 19.8374C53.0977 19.6736 53.2264 19.5332 53.396 19.5274C53.5656 19.5215 53.7001 19.6502 53.7059 19.8198C53.7176 20.1181 53.7235 20.4339 53.7235 20.7497C53.7235 20.9778 53.7235 21.2059 53.7235 21.434C53.7235 21.5978 53.589 21.7381 53.4252 21.7381C53.2614 21.7381 53.1269 21.6036 53.1211 21.4398C53.1211 21.2059 53.1211 20.9778 53.1211 20.7439ZM53.2556 24.6741C53.2147 24.1535 53.1854 23.6096 53.1679 23.0599C53.162 22.8961 53.2907 22.7558 53.4544 22.7441C53.6299 22.7382 53.7586 22.8669 53.7703 23.0306C53.7937 23.5745 53.8229 24.1126 53.858 24.6273C53.8697 24.791 53.7469 24.9372 53.5773 24.9489C53.5714 24.9489 53.5597 24.9489 53.5539 24.9489C53.396 24.9489 53.2673 24.8261 53.2556 24.6682V24.6741ZM53.6708 25.9549C53.8346 25.9373 53.9867 26.0543 54.0042 26.2181C54.0685 26.7678 54.1387 27.2942 54.2264 27.7972C54.2557 27.9609 54.1446 28.1188 53.9808 28.1422C53.9633 28.1422 53.9457 28.1422 53.9282 28.1422C53.782 28.1422 53.6533 28.037 53.6299 27.8907C53.5422 27.3819 53.472 26.838 53.4077 26.2824C53.3901 26.1186 53.5071 25.9666 53.6708 25.949V25.9549ZM55.3494 37.032C54.9107 37.1197 54.4838 37.1665 54.0802 37.1665C53.9691 37.1665 53.858 37.1665 53.7527 37.1548C53.589 37.1431 53.4603 37.0027 53.472 36.8331C53.4837 36.6635 53.6182 36.5407 53.7937 36.5524C54.2381 36.5816 54.7236 36.5407 55.2324 36.4354C55.3962 36.4003 55.5541 36.5056 55.5892 36.6694C55.6242 36.8331 55.519 36.991 55.3552 37.0261L55.3494 37.032ZM56.2617 34.0902C56.2091 34.1311 56.1448 34.1486 56.0863 34.1486C55.9927 34.1486 55.905 34.1077 55.8406 34.0258C55.5365 33.6106 55.2499 33.1252 54.9985 32.5929C54.9283 32.4409 54.9926 32.2654 55.1388 32.1894C55.2909 32.1192 55.4663 32.1835 55.5424 32.3298C55.7822 32.8269 56.0453 33.2772 56.3261 33.6632C56.4255 33.7977 56.3962 33.9849 56.2617 34.0843V34.0902ZM57.8116 35.4178C57.7531 35.5113 57.6537 35.5581 57.5543 35.5581C57.5016 35.5581 57.4431 35.5406 57.3963 35.5113C57.2618 35.4295 57.1332 35.3359 57.0045 35.2365C56.87 35.137 56.8466 34.944 56.9519 34.8154C57.0513 34.6809 57.2443 34.6575 57.3729 34.7627C57.4841 34.8505 57.601 34.9265 57.718 35.0025C57.8584 35.0903 57.8993 35.2774 57.8116 35.4178Z" fill="#EDEDED"/>
<path d="M67.0037 28.454C67.0037 28.454 62.0675 29.6646 60.2252 30.0038C60.0322 33.8288 59.2661 34.7704 59.2661 34.7704C57.4355 37.6946 53.9323 38.0455 53.9323 38.0455C68.8927 37.2267 67.0037 28.4598 67.0037 28.4598V28.454ZM60.1785 35.7412C59.5878 36.636 59.0263 36.9928 59.0029 37.0045C58.9561 37.0337 58.8976 37.0513 58.845 37.0513C58.7456 37.0513 58.6461 36.9986 58.5877 36.9109C58.4999 36.7706 58.5409 36.5834 58.6812 36.4957C58.6871 36.4957 59.1608 36.1857 59.6755 35.4079C59.7691 35.2675 59.9562 35.2324 60.0907 35.326C60.2311 35.4195 60.2662 35.6067 60.1726 35.7412H60.1785ZM60.9329 34.2498C60.8861 34.3727 60.775 34.4428 60.6522 34.4428C60.6171 34.4428 60.582 34.437 60.5469 34.4253C60.389 34.3668 60.313 34.1914 60.3715 34.0393C60.5469 33.5773 60.6873 33.0743 60.7925 32.5421C60.8218 32.3783 60.9855 32.2731 61.1435 32.3023C61.3072 32.3315 61.4125 32.4953 61.3832 32.6532C61.2721 33.2147 61.1259 33.7527 60.9388 34.2498H60.9329ZM61.5821 31.0273C61.5704 31.1852 61.4417 31.308 61.2838 31.308C61.278 31.308 61.2721 31.308 61.2663 31.308C61.1025 31.2964 60.9738 31.156 60.9855 30.9864C60.9972 30.7758 61.0089 30.5536 61.0089 30.3313C61.0089 30.1676 61.1552 30.0272 61.3131 30.0331C61.4768 30.0331 61.6113 30.1734 61.6113 30.3372C61.6113 30.5653 61.5996 30.7992 61.5821 31.0215V31.0273ZM65.2491 32.8696C64.9684 33.3784 64.6409 33.8346 64.2783 34.2323C64.2198 34.2966 64.1379 34.3317 64.056 34.3317C63.9858 34.3317 63.9098 34.3083 63.8513 34.2498C63.7285 34.1387 63.7226 33.9457 63.8338 33.8229C64.1671 33.4603 64.4654 33.0392 64.7227 32.5772C64.8046 32.431 64.9859 32.3783 65.1321 32.4602C65.2784 32.5421 65.331 32.7234 65.2491 32.8696ZM65.91 31.3431C65.869 31.4718 65.7521 31.5478 65.6234 31.5478C65.5942 31.5478 65.5591 31.5478 65.5298 31.5303C65.3719 31.4777 65.2842 31.308 65.3368 31.1501C65.6176 30.2963 65.6877 29.6529 65.6936 29.6471C65.7111 29.4833 65.8574 29.3605 66.027 29.378C66.1907 29.3956 66.3135 29.5418 66.296 29.7114C66.296 29.7406 66.22 30.4249 65.9158 31.3431H65.91Z" fill="#EDEDED"/>
<path d="M59.92 55.6401V65.0001H58.66V55.6401H55.33V54.5301H63.25V55.6401H59.92ZM65.459 55.4451C65.199 55.4451 65.009 55.3851 64.889 55.2651C64.779 55.1351 64.724 54.9701 64.724 54.7701V54.5751C64.724 54.3751 64.779 54.2151 64.889 54.0951C65.009 53.9651 65.199 53.9001 65.459 53.9001C65.719 53.9001 65.904 53.9651 66.014 54.0951C66.134 54.2151 66.194 54.3751 66.194 54.5751V54.7701C66.194 54.9701 66.134 55.1351 66.014 55.2651C65.904 55.3851 65.719 55.4451 65.459 55.4451ZM64.859 57.2601H66.059V65.0001H64.859V57.2601ZM68.609 53.9001H69.809V60.9351H69.869L71.054 59.6151L73.244 57.2601H74.699L71.834 60.3201L74.984 65.0001H73.529L70.964 61.0551L69.809 62.2401V65.0001H68.609V53.9001ZM79.6807 55.6401V65.0001H78.4207V55.6401H75.0907V54.5301H83.0107V55.6401H79.6807ZM86.5633 65.1801C86.0433 65.1801 85.5683 65.0851 85.1383 64.8951C84.7083 64.7051 84.3383 64.4351 84.0283 64.0851C83.7283 63.7251 83.4933 63.3001 83.3233 62.8101C83.1533 62.3101 83.0683 61.7501 83.0683 61.1301C83.0683 60.5201 83.1533 59.9651 83.3233 59.4651C83.4933 58.9651 83.7283 58.5401 84.0283 58.1901C84.3383 57.8301 84.7083 57.5551 85.1383 57.3651C85.5683 57.1751 86.0433 57.0801 86.5633 57.0801C87.0833 57.0801 87.5533 57.1751 87.9733 57.3651C88.4033 57.5551 88.7733 57.8301 89.0833 58.1901C89.3933 58.5401 89.6333 58.9651 89.8033 59.4651C89.9733 59.9651 90.0583 60.5201 90.0583 61.1301C90.0583 61.7501 89.9733 62.3101 89.8033 62.8101C89.6333 63.3001 89.3933 63.7251 89.0833 64.0851C88.7733 64.4351 88.4033 64.7051 87.9733 64.8951C87.5533 65.0851 87.0833 65.1801 86.5633 65.1801ZM86.5633 64.1151C87.2133 64.1151 87.7433 63.9151 88.1533 63.5151C88.5633 63.1151 88.7683 62.5051 88.7683 61.6851V60.5751C88.7683 59.7551 88.5633 59.1451 88.1533 58.7451C87.7433 58.3451 87.2133 58.1451 86.5633 58.1451C85.9133 58.1451 85.3833 58.3451 84.9733 58.7451C84.5633 59.1451 84.3583 59.7551 84.3583 60.5751V61.6851C84.3583 62.5051 84.5633 63.1151 84.9733 63.5151C85.3833 63.9151 85.9133 64.1151 86.5633 64.1151ZM92.0318 53.9001H93.2318V60.9351H93.2918L94.4768 59.6151L96.6668 57.2601H98.1218L95.2568 60.3201L98.4068 65.0001H96.9518L94.3868 61.0551L93.2318 62.2401V65.0001H92.0318V53.9001ZM111.767 56.1801H111.692L110.807 57.9351L108.302 62.4951L105.797 57.9351L104.912 56.1801H104.837V65.0001H103.607V54.5301H105.287L108.287 60.1701H108.362L111.377 54.5301H112.997V65.0001H111.767V56.1801ZM116.26 55.4451C116 55.4451 115.81 55.3851 115.69 55.2651C115.58 55.1351 115.525 54.9701 115.525 54.7701V54.5751C115.525 54.3751 115.58 54.2151 115.69 54.0951C115.81 53.9651 116 53.9001 116.26 53.9001C116.52 53.9001 116.705 53.9651 116.815 54.0951C116.935 54.2151 116.995 54.3751 116.995 54.5751V54.7701C116.995 54.9701 116.935 55.1351 116.815 55.2651C116.705 55.3851 116.52 55.4451 116.26 55.4451ZM115.66 57.2601H116.86V65.0001H115.66V57.2601ZM119.41 65.0001V57.2601H120.61V58.5201H120.67C120.86 58.0801 121.125 57.7301 121.465 57.4701C121.815 57.2101 122.28 57.0801 122.86 57.0801C123.66 57.0801 124.29 57.3401 124.75 57.8601C125.22 58.3701 125.455 59.0951 125.455 60.0351V65.0001H124.255V60.2451C124.255 58.8551 123.67 58.1601 122.5 58.1601C122.26 58.1601 122.025 58.1901 121.795 58.2501C121.575 58.3101 121.375 58.4001 121.195 58.5201C121.015 58.6401 120.87 58.7951 120.76 58.9851C120.66 59.1651 120.61 59.3801 120.61 59.6301V65.0001H119.41ZM128.535 55.4451C128.275 55.4451 128.085 55.3851 127.965 55.2651C127.855 55.1351 127.8 54.9701 127.8 54.7701V54.5751C127.8 54.3751 127.855 54.2151 127.965 54.0951C128.085 53.9651 128.275 53.9001 128.535 53.9001C128.795 53.9001 128.98 53.9651 129.09 54.0951C129.21 54.2151 129.27 54.3751 129.27 54.5751V54.7701C129.27 54.9701 129.21 55.1351 129.09 55.2651C128.98 55.3851 128.795 55.4451 128.535 55.4451ZM127.935 57.2601H129.135V65.0001H127.935V57.2601ZM134.01 65.1801C133.29 65.1801 132.685 65.0451 132.195 64.7751C131.715 64.4951 131.3 64.1251 130.95 63.6651L131.805 62.9751C132.105 63.3551 132.44 63.6501 132.81 63.8601C133.18 64.0601 133.61 64.1601 134.1 64.1601C134.61 64.1601 135.005 64.0501 135.285 63.8301C135.575 63.6101 135.72 63.3001 135.72 62.9001C135.72 62.6001 135.62 62.3451 135.42 62.1351C135.23 61.9151 134.88 61.7651 134.37 61.6851L133.755 61.5951C133.395 61.5451 133.065 61.4701 132.765 61.3701C132.465 61.2601 132.2 61.1201 131.97 60.9501C131.75 60.7701 131.575 60.5501 131.445 60.2901C131.325 60.0301 131.265 59.7201 131.265 59.3601C131.265 58.9801 131.335 58.6501 131.475 58.3701C131.615 58.0801 131.805 57.8401 132.045 57.6501C132.295 57.4601 132.59 57.3201 132.93 57.2301C133.27 57.1301 133.635 57.0801 134.025 57.0801C134.655 57.0801 135.18 57.1901 135.6 57.4101C136.03 57.6301 136.405 57.9351 136.725 58.3251L135.93 59.0451C135.76 58.8051 135.51 58.5901 135.18 58.4001C134.85 58.2001 134.435 58.1001 133.935 58.1001C133.435 58.1001 133.055 58.2101 132.795 58.4301C132.545 58.6401 132.42 58.9301 132.42 59.3001C132.42 59.6801 132.545 59.9551 132.795 60.1251C133.055 60.2951 133.425 60.4201 133.905 60.5001L134.505 60.5901C135.365 60.7201 135.975 60.9701 136.335 61.3401C136.695 61.7001 136.875 62.1751 136.875 62.7651C136.875 63.5151 136.62 64.1051 136.11 64.5351C135.6 64.9651 134.9 65.1801 134.01 65.1801ZM146.35 65.1801C145.02 65.1801 143.985 64.7301 143.245 63.8301C142.505 62.9201 142.135 61.5851 142.135 59.8251C142.135 58.0651 142.505 56.7151 143.245 55.7751C143.985 54.8251 145.02 54.3501 146.35 54.3501C147.23 54.3501 147.965 54.5501 148.555 54.9501C149.155 55.3501 149.62 55.9151 149.95 56.6451L148.93 57.2601C148.72 56.7201 148.4 56.2901 147.97 55.9701C147.54 55.6401 147 55.4751 146.35 55.4751C145.9 55.4751 145.495 55.5601 145.135 55.7301C144.785 55.9001 144.485 56.1451 144.235 56.4651C143.995 56.7751 143.81 57.1501 143.68 57.5901C143.55 58.0201 143.485 58.5051 143.485 59.0451V60.6051C143.485 61.6851 143.735 62.5301 144.235 63.1401C144.735 63.7501 145.44 64.0551 146.35 64.0551C147.02 64.0551 147.58 63.8851 148.03 63.5451C148.48 63.1951 148.81 62.7351 149.02 62.1651L150.025 62.7951C149.695 63.5351 149.22 64.1201 148.6 64.5501C147.98 64.9701 147.23 65.1801 146.35 65.1801ZM160.136 56.1801H160.061L159.176 57.9351L156.671 62.4951L154.166 57.9351L153.281 56.1801H153.206V65.0001H151.976V54.5301H153.656L156.656 60.1701H156.731L159.746 54.5301H161.366V65.0001H160.136V56.1801ZM167.089 65.1801C166.239 65.1801 165.514 65.0201 164.914 64.7001C164.314 64.3701 163.804 63.9201 163.384 63.3501L164.314 62.5701C164.684 63.0601 165.094 63.4351 165.544 63.6951C165.994 63.9451 166.524 64.0701 167.134 64.0701C167.884 64.0701 168.454 63.8901 168.844 63.5301C169.244 63.1701 169.444 62.6901 169.444 62.0901C169.444 61.5901 169.294 61.2051 168.994 60.9351C168.694 60.6651 168.199 60.4501 167.509 60.2901L166.654 60.0951C165.694 59.8751 164.959 59.5451 164.449 59.1051C163.949 58.6551 163.699 58.0251 163.699 57.2151C163.699 56.7551 163.784 56.3451 163.954 55.9851C164.124 55.6251 164.359 55.3251 164.659 55.0851C164.969 54.8451 165.334 54.6651 165.754 54.5451C166.184 54.4151 166.654 54.3501 167.164 54.3501C167.954 54.3501 168.629 54.4951 169.189 54.7851C169.759 55.0751 170.239 55.5001 170.629 56.0601L169.684 56.7501C169.394 56.3501 169.044 56.0351 168.634 55.8051C168.224 55.5751 167.714 55.4601 167.104 55.4601C166.434 55.4601 165.904 55.6051 165.514 55.8951C165.134 56.1751 164.944 56.6001 164.944 57.1701C164.944 57.6701 165.104 58.0501 165.424 58.3101C165.754 58.5601 166.249 58.7601 166.909 58.9101L167.764 59.1051C168.794 59.3351 169.539 59.6851 169.999 60.1551C170.459 60.6251 170.689 61.2501 170.689 62.0301C170.689 62.5101 170.604 62.9451 170.434 63.3351C170.274 63.7251 170.039 64.0551 169.729 64.3251C169.419 64.5951 169.039 64.8051 168.589 64.9551C168.149 65.1051 167.649 65.1801 167.089 65.1801Z" fill="white"/>
</svg>
