<svg width="20" height="20" viewBox="0 0 20 20" fill="none" xmlns="http://www.w3.org/2000/svg">
<g clip-path="url(#clip0_167_2069)">
<path d="M10 1.17188C12.0369 1.1727 14.0109 1.87768 15.5875 3.16738C17.1642 4.45707 18.2464 6.25217 18.651 8.24851C19.0555 10.2449 18.7575 12.3197 17.8074 14.1214C16.8572 15.9232 15.3134 17.341 13.4375 18.1348C11.28 19.0464 8.84875 19.0637 6.67853 18.1828C4.50831 17.3019 2.77692 15.595 1.86523 13.4375C0.953553 11.28 0.936264 8.84875 1.81717 6.67853C2.69808 4.50831 4.40503 2.77692 6.5625 1.86523C7.64997 1.40504 8.81917 1.16921 10 1.17188ZM10 0C4.47734 0 0 4.47734 0 10C0 15.5227 4.47734 20 10 20C15.5227 20 20 15.5227 20 10C20 4.47734 15.5227 0 10 0Z" fill="#F95050"/>
<path d="M10 4.53125C8.91839 4.53125 7.86106 4.85199 6.96173 5.4529C6.0624 6.05381 5.36145 6.90792 4.94754 7.9072C4.53362 8.90648 4.42532 10.0061 4.63633 11.0669C4.84735 12.1277 5.36819 13.1022 6.13301 13.867C6.89783 14.6318 7.87227 15.1527 8.9331 15.3637C9.99394 15.5747 11.0935 15.4664 12.0928 15.0525C13.0921 14.6385 13.9462 13.9376 14.5471 13.0383C15.148 12.1389 15.4688 11.0816 15.4688 10C15.4688 8.5496 14.8926 7.1586 13.867 6.13301C12.8414 5.10742 11.4504 4.53125 10 4.53125ZM10.9438 12.7445C10.9438 12.9949 10.8443 13.235 10.6674 13.412C10.4904 13.5891 10.2503 13.6886 10 13.6887C9.7496 13.6887 9.50945 13.5892 9.33239 13.4121C9.15533 13.2351 9.05586 12.9949 9.05586 12.7445C9.05586 12.4941 9.15533 12.254 9.33239 12.0769C9.50945 11.8999 9.7496 11.8004 10 11.8004C10.2503 11.8005 10.4904 11.9 10.6674 12.0771C10.8443 12.2541 10.9438 12.4942 10.9438 12.7445ZM10.9438 10.4398C10.9345 10.684 10.831 10.9151 10.655 11.0846C10.4791 11.2542 10.2443 11.349 10 11.3492C9.75576 11.3493 9.52097 11.2548 9.34488 11.0856C9.16878 10.9163 9.06506 10.6855 9.05547 10.4414L8.93086 7.29492C8.92576 7.16771 8.94641 7.04079 8.99158 6.92176C9.03675 6.80273 9.10551 6.69406 9.19373 6.60227C9.28194 6.51048 9.3878 6.43746 9.50494 6.3876C9.62208 6.33774 9.74808 6.31206 9.87539 6.31211H10.1246C10.2519 6.31211 10.3779 6.33783 10.495 6.38771C10.6121 6.43759 10.7179 6.51061 10.8062 6.60239C10.8944 6.69417 10.9631 6.80282 11.0083 6.92182C11.0535 7.04082 11.0742 7.16773 11.0691 7.29492L10.9438 10.4398Z" fill="#F95050"/>
</g>
<defs>
<clipPath id="clip0_167_2069">
<rect width="20" height="20" fill="white"/>
</clipPath>
</defs>
</svg>
