<svg width="22" height="22" viewBox="0 0 22 22" fill="none" xmlns="http://www.w3.org/2000/svg">
<g clip-path="url(#clip0_168_5645)">
<path d="M11.0006 3.58154C6.91 3.58154 3.58203 6.90952 3.58203 11.0001C3.58203 15.0908 6.91 18.4187 11.0006 18.4187C15.0913 18.4187 18.4192 15.0908 18.4192 11.0001C18.4192 6.90952 15.0913 3.58154 11.0006 3.58154ZM14.4757 9.37214L10.1344 13.7135C9.83497 14.013 9.34865 14.0132 9.04907 13.7135L7.52553 12.1899C7.22582 11.8902 7.22582 11.4043 7.52553 11.1046C7.82524 10.8049 8.31117 10.8049 8.61084 11.1046L9.59173 12.0855L13.3904 8.28684C13.69 7.98717 14.176 7.98717 14.4757 8.28684C14.7754 8.5865 14.7754 9.07243 14.4757 9.37214Z" fill="#64D464"/>
<path d="M11 0C4.92031 0 0 4.91975 0 11C0 17.0797 4.91975 22 11 22C17.0797 22 22 17.0802 22 11C22 4.92031 17.0802 0 11 0ZM11 19.9535C6.06306 19.9535 2.04652 15.9369 2.04652 11C2.04652 6.06306 6.06306 2.04652 11 2.04652C15.9369 2.04652 19.9535 6.06306 19.9535 11C19.9535 15.9369 15.9369 19.9535 11 19.9535Z" fill="#64D464"/>
</g>
<defs>
<clipPath id="clip0_168_5645">
<rect width="22" height="22" fill="white"/>
</clipPath>
</defs>
</svg>
