<svg width="20" height="20" viewBox="0 0 20 20" fill="none" xmlns="http://www.w3.org/2000/svg">
<g clip-path="url(#clip0_167_2124)">
<path d="M10 1.17188C12.0369 1.1727 14.0109 1.87768 15.5875 3.16738C17.1642 4.45707 18.2464 6.25217 18.651 8.24851C19.0555 10.2449 18.7575 12.3197 17.8074 14.1214C16.8572 15.9232 15.3134 17.341 13.4375 18.1348C11.28 19.0464 8.84875 19.0637 6.67853 18.1828C4.50831 17.3019 2.77692 15.595 1.86523 13.4375C0.953553 11.28 0.936264 8.84875 1.81717 6.67853C2.69808 4.50831 4.40503 2.77692 6.5625 1.86523C7.64997 1.40504 8.81917 1.16921 10 1.17188ZM10 0C4.47734 0 0 4.47734 0 10C0 15.5227 4.47734 20 10 20C15.5227 20 20 15.5227 20 10C20 4.47734 15.5227 0 10 0Z" fill="#FFEA73"/>
<path d="M10 4.53125C8.91839 4.53125 7.86106 4.85199 6.96173 5.4529C6.0624 6.05381 5.36145 6.90792 4.94754 7.9072C4.53362 8.90648 4.42532 10.0061 4.63633 11.0669C4.84735 12.1277 5.36819 13.1022 6.13301 13.867C6.89783 14.6318 7.87227 15.1527 8.9331 15.3637C9.99394 15.5747 11.0935 15.4664 12.0928 15.0525C13.0921 14.6385 13.9462 13.9376 14.5471 13.0383C15.148 12.1389 15.4688 11.0816 15.4688 10C15.4688 8.5496 14.8926 7.1586 13.867 6.13301C12.8414 5.10742 11.4504 4.53125 10 4.53125ZM9.3836 12.7609C9.3836 12.9306 9.31618 13.0934 9.19619 13.2134C9.0762 13.3334 8.91345 13.4008 8.74375 13.4008H7.82696C7.65733 13.4007 7.49468 13.3332 7.37477 13.2132C7.25486 13.0933 7.1875 12.9306 7.1875 12.7609V7.23906C7.1875 7.06937 7.25491 6.90662 7.37491 6.78662C7.4949 6.66663 7.65765 6.59922 7.82735 6.59922H8.74414C8.91384 6.59922 9.07659 6.66663 9.19658 6.78662C9.31657 6.90662 9.38399 7.06937 9.38399 7.23906L9.3836 12.7609ZM12.8129 12.7609C12.8129 12.9306 12.7455 13.0934 12.6255 13.2134C12.5055 13.3334 12.3427 13.4008 12.173 13.4008H11.2563C11.0866 13.4008 10.9238 13.3334 10.8038 13.2134C10.6838 13.0934 10.6164 12.9306 10.6164 12.7609V7.23906C10.6164 7.06937 10.6838 6.90662 10.8038 6.78662C10.9238 6.66663 11.0866 6.59922 11.2563 6.59922H12.173C12.3427 6.59932 12.5053 6.66678 12.6252 6.78676C12.7451 6.90675 12.8125 7.06943 12.8125 7.23906L12.8129 12.7609Z" fill="#FFEA73"/>
</g>
<defs>
<clipPath id="clip0_167_2124">
<rect width="20" height="20" fill="white"/>
</clipPath>
</defs>
</svg>
