<svg width="252" height="252" viewBox="0 0 252 252" fill="none" xmlns="http://www.w3.org/2000/svg">
<mask id="mask0_136_969" style="mask-type:luminance" maskUnits="userSpaceOnUse" x="11" y="8" width="232" height="232">
<path d="M11 8H243V240H11V8Z" fill="white"/>
</mask>
<g mask="url(#mask0_136_969)">
<path d="M218.001 14.797H164.317C154.307 14.797 140.325 20.5884 133.246 27.6666L23.1054 137.807C16.0271 144.884 16.0285 156.468 23.1067 163.545L87.4541 227.895C94.5324 234.973 106.115 234.972 113.193 227.894L223.334 117.754C230.412 110.675 236.203 96.6948 236.203 86.6834V32.9972C236.202 22.9886 228.012 14.797 218.001 14.797Z" stroke="#AEB9E1" stroke-width="10" stroke-miterlimit="10" stroke-linecap="round" stroke-linejoin="round"/>
<path d="M74.1236 158.208C71.6527 155.738 72.2703 152.134 75.9764 148.427C80.3015 144.103 83.4412 144.875 85.0376 143.28C86.8913 141.425 85.347 138.233 84.1626 137.051C80.7641 133.652 73.2998 139.676 70.2625 142.712C64.3415 148.633 60.378 157.849 68.0481 165.519C80.2498 177.72 94.4077 158.827 102.13 166.549C105.218 169.638 103.932 173.704 100.843 176.795C95.5913 182.044 90.2372 179.472 88.1265 181.581C86.5306 183.177 87.3548 186.678 88.7958 188.12C91.7819 191.106 100.328 189.355 107.072 182.611C114.177 175.508 115.515 166.548 108.153 159.187C94.8201 145.853 80.5068 164.593 74.1236 158.208Z" fill="#AEB9E1"/>
<path d="M117.212 144.672L105.885 124.387L126.169 135.713L117.212 144.672ZM146.093 136.073L103.774 113.627C101.767 112.546 99.1408 113.731 97.1851 115.687C95.2806 117.591 94.0957 120.217 95.1773 122.226L117.623 164.543C117.777 164.8 117.932 165.057 118.035 165.162C119.682 166.808 123.235 165.521 125.037 163.72C126.169 162.588 126.684 161.351 125.964 160.115L121.073 151.312L132.862 139.523L141.665 144.415C142.901 145.134 144.137 144.621 145.269 143.487C147.071 141.686 148.306 138.081 146.71 136.486C146.556 136.332 146.35 136.228 146.093 136.073Z" fill="#AEB9E1"/>
<path d="M166.426 110.593L153.864 123.154L124.16 93.4486C122.718 92.0068 120.402 93.0888 118.754 94.7355C117.056 96.4347 116.025 98.6999 117.466 100.142L150.93 133.605C152.32 134.995 154.483 134.275 155.976 132.78L172.295 116.461C173.633 115.123 172.81 112.961 171.368 111.52C169.875 110.027 167.765 109.253 166.426 110.593Z" fill="#AEB9E1"/>
<path d="M198.446 84.5446C196.851 82.9482 194.688 82.3306 193.349 83.6687L178.78 98.2376L168.433 87.8905L176.257 80.0654C177.699 78.6241 176.978 76.5651 175.794 75.3801C174.404 73.9913 172.344 73.4766 171.006 74.8146L163.181 82.6392L152.884 72.3428L167.454 57.7744C168.793 56.435 168.175 54.2736 166.58 52.6768C165.189 51.2875 163.026 50.4628 161.585 51.9046L143.257 70.2331C141.764 71.7248 141.044 73.8871 142.434 75.2768L175.846 108.688C177.236 110.08 179.398 109.359 180.891 107.866L199.218 89.5385C200.66 88.0966 199.836 85.9339 198.446 84.5446Z" fill="#AEB9E1"/>
</g>
</svg>
