<svg width="252" height="252" viewBox="0 0 252 252" fill="none" xmlns="http://www.w3.org/2000/svg">
<g clip-path="url(#clip0_136_973)">
<path d="M113.549 144.959L122.197 136.31L102.613 125.373L113.549 144.959Z" fill="#6C72FF"/>
<path d="M210.862 13H159.031C147.652 13 132.435 19.3027 124.391 27.3486L18.0479 133.69C13.502 138.234 11 144.294 11 150.756C11 157.218 13.5037 163.278 18.0479 167.822L80.1763 229.952C84.7205 234.496 90.7822 237 97.2422 237C103.704 237 109.764 234.496 114.31 229.952L220.651 123.609C228.697 115.565 235 100.348 235 88.9695V37.1343C234.998 23.8264 224.17 13 210.862 13ZM103.759 181.59C97.2473 188.103 88.9963 189.793 86.1133 186.91C84.7222 185.517 83.9258 182.136 85.4673 180.595C87.5044 178.56 92.6741 181.043 97.7446 175.974C100.727 172.99 101.969 169.064 98.9871 166.082C91.5308 158.626 77.8623 176.868 66.0806 165.088C58.6755 157.681 62.502 148.784 68.2185 143.067C71.1511 140.135 78.3579 134.319 81.6392 137.6C82.7825 138.742 84.2744 141.825 82.4851 143.614C80.9436 145.154 77.9119 144.409 73.7351 148.584C70.1582 152.164 69.5618 155.644 71.9475 158.028C78.1101 164.194 91.929 146.099 104.803 158.973C111.91 166.081 110.618 174.731 103.759 181.59ZM140.638 143.816C139.546 144.91 138.354 145.405 137.159 144.711L128.66 139.988L117.277 151.371L122 159.87C122.696 161.063 122.197 162.258 121.103 163.35C119.365 165.089 115.935 166.332 114.344 164.742C114.245 164.642 114.094 164.394 113.946 164.146L92.2742 123.288C91.23 121.348 92.375 118.812 94.2139 116.975C96.1023 115.086 98.6367 113.941 100.575 114.985L141.435 136.657C141.683 136.807 141.883 136.906 142.03 137.055C143.571 138.595 142.38 142.076 140.638 143.816ZM166.733 117.72L150.976 133.478C149.534 134.921 147.447 135.616 146.104 134.273L113.795 101.965C112.403 100.572 113.399 98.3843 115.038 96.7437C116.629 95.1543 118.866 94.1101 120.257 95.5012L148.937 124.183L161.066 112.054C162.36 110.761 164.397 111.508 165.839 112.95C167.23 114.341 168.025 116.429 166.733 117.72ZM192.728 91.7261L175.033 109.421C173.591 110.863 171.504 111.559 170.161 110.216L137.902 77.9568C136.559 76.6152 137.255 74.5269 138.697 73.0862L156.392 55.3896C157.785 53.9985 159.871 54.7949 161.215 56.1365C162.754 57.678 163.351 59.7646 162.059 61.0583L147.99 75.1233L157.933 85.0645L165.489 77.5107C166.781 76.2188 168.77 76.7161 170.112 78.0559C171.255 79.1992 171.95 81.1885 170.558 82.5796L163.002 90.135L172.993 100.126L187.06 86.0591C188.353 84.7671 190.442 85.3635 191.981 86.905C193.325 88.2466 194.119 90.335 192.728 91.7261ZM198.282 59.375C197.061 60.5952 195.369 61.2959 193.641 61.2959C191.911 61.2959 190.223 60.5952 189.003 59.375C187.777 58.1548 187.078 56.4629 187.078 54.7334C187.078 53.0056 187.777 51.3171 189.003 50.0952C190.223 48.875 191.911 48.176 193.641 48.176C195.369 48.176 197.061 48.875 198.282 50.0952C199.503 51.3171 200.203 53.0056 200.203 54.7334C200.203 56.4629 199.503 58.1548 198.282 59.375Z" fill="#6C72FF"/>
</g>
<defs>
<clipPath id="clip0_136_973">
<rect width="224" height="224" fill="white" transform="translate(11 13)"/>
</clipPath>
</defs>
</svg>
