<svg width="252" height="252" viewBox="0 0 252 252" fill="none" xmlns="http://www.w3.org/2000/svg">
<g clip-path="url(#clip0_136_977)">
<path d="M146.016 81.6527C146.016 104.104 129.372 122.304 108.842 122.304C88.3114 122.304 71.6689 104.104 71.6689 81.6527C71.6689 59.2012 88.3114 41 108.842 41C129.372 41 146.016 59.2012 146.016 81.6527Z" fill="#6C72FF"/>
<path d="M127.681 210.113C123.808 202.78 124.582 193.746 129.191 187.348C124.582 180.949 123.808 171.925 127.681 164.582L133.697 153.199C137.005 146.932 143.176 143.037 149.801 143.037C150.707 143.037 151.599 143.11 152.484 143.249C152.73 142.582 153.042 141.955 153.347 141.321C149.332 139.589 144.998 138.565 140.44 138.565H77.2448C57.7721 138.565 41.9287 155.891 41.9287 177.184V205.641C41.9287 209.007 44.4268 211.739 47.5048 211.739H128.536L127.681 210.113Z" fill="#6C72FF"/>
<path d="M203.287 191.16C203.435 189.901 203.636 188.649 203.636 187.348C203.636 186.039 203.427 184.795 203.287 183.535L209.985 177.99C211.48 176.754 211.896 174.494 210.96 172.714L204.945 161.331C204.007 159.558 202.007 158.818 200.283 159.614L192.573 163.168C190.692 161.599 188.692 160.217 186.484 159.208L185.457 150.256C185.221 148.224 183.644 146.695 181.771 146.695H169.749C167.874 146.695 166.291 148.224 166.061 150.256L165.035 159.208C162.826 160.217 160.82 161.606 158.945 163.168L151.236 159.614C149.511 158.818 147.511 159.55 146.575 161.331L140.559 172.714C139.622 174.485 140.039 176.745 141.534 177.99L148.231 183.535C148.083 184.795 147.883 186.047 147.883 187.348C147.883 188.656 148.091 189.901 148.231 191.16L141.534 196.706C140.039 197.942 139.622 200.201 140.559 201.982L146.575 213.374C147.511 215.145 149.511 215.885 151.236 215.089L158.945 211.528C160.827 213.097 162.826 214.478 165.035 215.488L166.061 224.439C166.291 226.472 167.867 228 169.741 228H181.763C183.636 228 185.221 226.472 185.451 224.439L186.477 215.488C188.685 214.478 190.692 213.089 192.565 211.528L200.276 215.081C202.001 215.878 204 215.145 204.937 213.365L210.951 201.975C211.888 200.201 211.473 197.942 209.978 196.698L203.287 191.16ZM175.755 203.609C167.541 203.609 160.886 196.332 160.886 187.348C160.886 178.363 167.541 171.086 175.755 171.086C183.971 171.086 190.625 178.363 190.625 187.348C190.625 196.332 183.971 203.609 175.755 203.609Z" fill="#6C72FF"/>
</g>
<defs>
<clipPath id="clip0_136_977">
<rect width="171" height="187" fill="white" transform="translate(41 41)"/>
</clipPath>
</defs>
</svg>
