<svg width="252" height="252" viewBox="0 0 252 252" fill="none" xmlns="http://www.w3.org/2000/svg">
<g clip-path="url(#clip0_136_976)">
<path d="M180.379 205.916C164.857 205.916 152.232 193.291 152.232 177.771C152.232 162.25 164.857 149.625 180.379 149.625C195.899 149.625 208.524 162.25 208.524 177.771C208.524 193.291 195.899 205.916 180.379 205.916ZM180.379 161.688C171.509 161.688 164.295 168.901 164.295 177.771C164.295 186.642 171.509 193.854 180.379 193.854C189.249 193.854 196.461 186.642 196.461 177.771C196.461 168.901 189.249 161.688 180.379 161.688Z" fill="#AEB9E1"/>
<path d="M180.379 222C177.05 222 174.348 219.298 174.348 215.969V199.885C174.348 196.556 177.05 193.854 180.379 193.854C183.708 193.854 186.41 196.556 186.41 199.885V215.969C186.41 219.298 183.708 222 180.379 222Z" fill="#AEB9E1"/>
<path d="M180.379 161.687C177.05 161.687 174.348 158.985 174.348 155.656V139.572C174.348 136.243 177.05 133.541 180.379 133.541C183.708 133.541 186.41 136.243 186.41 139.572V155.656C186.41 158.985 183.708 161.687 180.379 161.687Z" fill="#AEB9E1"/>
<path d="M199.518 172.786C197.435 172.786 195.408 171.708 194.291 169.77C192.625 166.882 193.615 163.2 196.494 161.527L210.406 153.484C213.284 151.82 216.976 152.81 218.648 155.689C220.314 158.575 219.324 162.259 216.446 163.932L202.534 171.973C201.584 172.528 200.547 172.786 199.518 172.786Z" fill="#AEB9E1"/>
<path d="M147.335 202.861C145.253 202.861 143.225 201.783 142.107 199.845C140.444 196.958 141.432 193.275 144.312 191.602L158.224 183.561C161.102 181.888 164.794 182.885 166.467 185.764C168.131 188.651 167.141 192.334 164.262 194.007L150.35 202.048C149.393 202.603 148.357 202.861 147.335 202.861Z" fill="#AEB9E1"/>
<path d="M161.239 172.786C160.217 172.786 159.172 172.528 158.224 171.973L144.312 163.932C141.432 162.259 140.444 158.575 142.107 155.689C143.78 152.81 147.472 151.82 150.35 153.484L164.262 161.527C167.141 163.2 168.131 166.882 166.467 169.77C165.34 171.708 163.314 172.786 161.239 172.786Z" fill="#AEB9E1"/>
<path d="M213.421 202.861C212.401 202.861 211.355 202.603 210.406 202.048L196.494 194.007C193.615 192.334 192.625 188.651 194.291 185.764C195.964 182.885 199.654 181.896 202.534 183.561L216.446 191.602C219.324 193.275 220.314 196.958 218.648 199.845C217.531 201.783 215.505 202.861 213.421 202.861Z" fill="#AEB9E1"/>
<path d="M116.045 109.416C93.8737 109.416 75.8359 91.3799 75.8359 69.2088C75.8359 47.0378 93.8737 29 116.045 29C138.216 29 156.254 47.0378 156.254 69.2088C156.254 91.3799 138.216 109.416 116.045 109.416ZM116.045 41.0625C100.525 41.0625 87.8984 53.6875 87.8984 69.2088C87.8984 84.7287 100.525 97.3537 116.045 97.3537C131.565 97.3537 144.191 84.7287 144.191 69.2088C144.191 53.6875 131.565 41.0625 116.045 41.0625Z" fill="#AEB9E1"/>
<path d="M124.086 197.875H49.7012C46.3719 197.875 43.6699 195.173 43.6699 191.844V163.697C43.6699 142.637 60.8066 125.5 81.8673 125.5H150.222C153.552 125.5 156.254 128.202 156.254 131.531C156.254 134.861 153.552 137.562 150.222 137.562H81.8673C67.4577 137.562 55.7324 149.288 55.7324 163.697V185.812H124.086C127.415 185.812 130.117 188.514 130.117 191.844C130.117 195.173 127.415 197.875 124.086 197.875Z" fill="#AEB9E1"/>
</g>
<defs>
<clipPath id="clip0_136_976">
<rect width="193" height="193" fill="white" transform="translate(35 29)"/>
</clipPath>
</defs>
</svg>
